<svg xmlns="http://www.w3.org/2000/svg" xmlns:xlink="http://www.w3.org/1999/xlink"><defs>
<rect width="30" height="17" fill="white"/>

</defs><symbol id="arrow" viewBox="0 0 30 17">
<path d="M15.8232 15.8603L29.6607 1.98437C30.1139 1.52975 30.1131 0.793695 29.6584 0.339829C29.2038 -0.113685 28.4673 -0.112513 28.0139 0.342173L14.9999 13.3921L1.98609 0.341703C1.53257 -0.112924 0.79658 -0.114096 0.341894 0.339359C0.113965 0.566878 -2.75818e-07 0.864943 -2.88847e-07 1.16301C-3.01842e-07 1.46031 0.113203 1.75721 0.33955 1.98431L14.1767 15.8603C14.3946 16.0792 14.691 16.2021 14.9999 16.2021C15.3088 16.2021 15.605 16.0789 15.8232 15.8603Z" fill="white"/>


</symbol><symbol id="balance" viewBox="0 0 512 512"><g><path d="m512 166c0-24.813-20.187-45-45-45v30c8.271 0 15 6.729 15 15s-6.729 15-15 15c-18.383 0-65.162 0-83.722 0 4.994-14.082 7.722-29.228 7.722-45 0-74.991-60.561-136-135-136s-135 61.009-135 136c0 15.772 2.728 30.918 7.722 45-17.079 0-66.643 0-83.722 0-8.271 0-15-6.729-15-15s6.729-15 15-15v-30c-24.813 0-45 20.187-45 45s20.187 45 45 45h21.658l-66.658 132.438v33.562c0 24.813 20.187 45 45 45h91c24.813 0 45-20.187 45-45v-33.52l-65.801-132.48h28.607c21.615 32.229 56.736 54.669 97.195 59.162l-.001 151.838h-15c-36.219 0-66.522 25.808-73.491 60h-31.509v30h270v-30h-31.509c-6.968-34.192-37.271-60-73.491-60h-15.01v-151.838c40.459-4.494 75.589-26.933 97.204-59.162h28.607l-65.801 132.48v33.52c0 24.813 20.187 45 45 45h91c24.813 0 45-20.187 45-45v-33.562l-66.658-132.438h21.658c24.813 0 45-20.187 45-45zm-421.089 63.541 50.89 102.459h-102.459zm45.089 162.459h-91c-8.271 0-15-6.729-15-15v-15h121v15c0 8.271-6.729 15-15 15zm192.42 90h-144.84c6.192-17.458 22.865-30 42.42-30h60c19.555 0 36.228 12.542 42.42 30zm-177.42-346c0-53.308 39.184-97.543 90-104.914v32.494c-17.459 6.192-30 22.865-30 42.42 0 24.813 20.187 45 45 45 8.271 0 15 6.729 15 15s-6.729 15-15 15-15-6.729-15-15h-30c0 19.555 12.541 36.228 30 42.42v31.504c-50.816-7.301-90-51.119-90-103.924zm120 103.924v-31.504c17.459-6.192 30-22.865 30-42.42 0-24.813-20.187-45-45-45-8.271 0-15-6.729-15-15s6.729-15 15-15 15 6.729 15 15h30c0-19.555-12.541-36.228-30-42.42v-32.494c50.816 7.371 90 51.606 90 104.914 0 52.805-39.184 96.623-90 103.924zm150.089-10.383 51.568 102.459h-102.458zm45.911 162.459h-91c-8.271 0-15-6.729-15-15v-15h121v15c0 8.271-6.729 15-15 15z"/></g></symbol><symbol id="contacts" viewBox="0 0 35 21">
<path d="M2.916 0.995999L2.916 4.296L5.46 0.995999L8.028 0.995999L4.848 4.788L8.316 9H5.628L2.916 5.532L2.916 9H0.84L0.84 0.995999L2.916 0.995999ZM17.6464 5.004C17.6464 6.188 17.2264 7.184 16.3864 7.992C15.5544 8.784 14.5024 9.18 13.2304 9.18C11.9584 9.18 10.9064 8.784 10.0744 7.992C9.23438 7.184 8.81438 6.188 8.81438 5.004C8.81438 4.452 8.91838 3.912 9.12638 3.384C9.34238 2.856 9.65838 2.396 10.0744 2.004C10.9064 1.212 11.9584 0.816 13.2304 0.816C14.5024 0.816 15.5544 1.212 16.3864 2.004C16.8024 2.396 17.1144 2.856 17.3224 3.384C17.5384 3.912 17.6464 4.452 17.6464 5.004ZM13.2304 2.832C12.5744 2.832 12.0344 3.044 11.6104 3.468C11.1864 3.884 10.9744 4.408 10.9744 5.04C10.9744 5.624 11.1864 6.12 11.6104 6.528C12.0504 6.952 12.5904 7.164 13.2304 7.164C13.8864 7.164 14.4224 6.956 14.8384 6.54C15.2704 6.108 15.4864 5.596 15.4864 5.004C15.4864 4.396 15.2704 3.884 14.8384 3.468C14.3904 3.044 13.8544 2.832 13.2304 2.832ZM21.6473 0.995999V3.984H24.6473V0.995999L26.7353 0.995999V9H24.6473V5.76H21.6473V9H19.5713V0.995999L21.6473 0.995999ZM33.7469 2.76H32.0429V9H29.9669V2.76L28.2629 2.76V0.995999L33.7469 0.995999V2.76ZM6.216 21L5.724 19.656H2.82L2.28 21H0.0840005L3.156 12.996H5.424L8.436 21H6.216ZM3.396 18.072H5.172L4.272 15.48L3.396 18.072ZM12.0355 12.996L12.0355 16.296L14.5795 12.996L17.1475 12.996L13.9675 16.788L17.4355 21H14.7475L12.0355 17.532V21L9.95953 21L9.95953 12.996H12.0355ZM23.6196 14.76H21.9156V21H19.8396V14.76H18.1356V12.996H23.6196V14.76ZM31.92 21V12.996H34.008V21L31.92 21ZM25.14 21V12.996H27.228V16.116H28.236C29.324 16.116 30.12 16.364 30.624 16.86C31.048 17.276 31.26 17.84 31.26 18.552C31.26 19.264 31.06 19.824 30.66 20.232C30.156 20.744 29.308 21 28.116 21H25.14ZM27.228 19.392H28.032C28.472 19.392 28.772 19.312 28.932 19.152C29.076 19.008 29.148 18.808 29.148 18.552C29.148 18.296 29.072 18.1 28.92 17.964C28.752 17.804 28.456 17.724 28.032 17.724H27.228V19.392Z" fill="white"/>
</symbol><symbol id="customs" viewBox="0 0 10 65">
<path d="M2.76 59.432L2.76 61.136L9 61.136L9 63.212L2.76 63.212L2.76 64.916L0.996001 64.916L0.996001 59.432L2.76 59.432ZM9 52.8988L7.656 53.3908L7.656 56.2948L9 56.8348L9 59.0308L0.996001 55.9588L0.996001 53.6908L9 50.6788L9 52.8988ZM6.072 55.7188L6.072 53.9428L3.48 54.8428L6.072 55.7188ZM9 47.4513L9 49.5153L0.996001 48.1593L0.996 46.1073L5.268 44.4873L0.996 42.7713L0.996 40.6953L9 39.4953L9 41.5713L4.392 42.1593L9 44.0913L9 44.9193L4.392 46.7673L9 47.4513ZM5.004 29.1028C6.188 29.1028 7.184 29.5228 7.992 30.3628C8.784 31.1948 9.18 32.2468 9.18 33.5188C9.18 34.7908 8.784 35.8428 7.992 36.6748C7.184 37.5148 6.188 37.9348 5.004 37.9348C4.452 37.9348 3.912 37.8308 3.384 37.6228C2.856 37.4068 2.396 37.0908 2.004 36.6748C1.212 35.8428 0.816 34.7908 0.816 33.5188C0.816 32.2468 1.212 31.1948 2.004 30.3628C2.396 29.9468 2.856 29.6348 3.384 29.4268C3.912 29.2108 4.452 29.1028 5.004 29.1028ZM2.832 33.5188C2.832 34.1748 3.044 34.7148 3.468 35.1388C3.884 35.5628 4.408 35.7748 5.04 35.7748C5.624 35.7748 6.12 35.5628 6.528 35.1388C6.952 34.6988 7.164 34.1588 7.164 33.5188C7.164 32.8628 6.956 32.3268 6.54 31.9108C6.108 31.4788 5.596 31.2628 5.004 31.2628C4.396 31.2628 3.884 31.4788 3.468 31.9108C3.044 32.3588 2.832 32.8948 2.832 33.5188ZM9 23.687L5.484 23.687L9 25.847L9 28.463L4.92 25.547L0.996 28.223L0.996 25.823L4.476 23.687L0.995999 23.687L0.995999 21.623L4.476 21.623L0.995999 19.487L0.995999 17.087L4.92 19.763L9 16.847L9 19.463L5.484 21.623L9 21.623L9 23.687ZM0.995999 13.3223L3.984 13.3223L3.984 10.3223L0.995999 10.3223L0.995999 8.23428L9 8.23428L9 10.3223L5.76 10.3223L5.76 13.3223L9 13.3223L9 15.3983L0.995999 15.3983L0.995999 13.3223ZM9 6.62263L5.988 4.39063C5.908 4.85463 5.7 5.25063 5.364 5.57863C4.94 5.99463 4.38 6.20263 3.684 6.20263C2.892 6.20263 2.264 5.98263 1.8 5.54263C1.264 5.03863 0.995999 4.29063 0.995999 3.29863L0.995998 0.214626L9 0.214626L9 2.30263L6.276 2.30263L6.276 2.50663L9 4.22263L9 6.62263ZM4.668 2.30263L2.748 2.30263L2.748 2.89063C2.748 3.29063 2.84 3.59063 3.024 3.79063C3.192 3.97463 3.42 4.06663 3.708 4.06663C3.996 4.06663 4.224 3.98263 4.392 3.81463C4.576 3.62263 4.668 3.31463 4.668 2.89063L4.668 2.30263Z" fill="white"/>
</symbol><symbol id="deal" viewBox="0 -40 512.00232 512"><path d="m507.527344 131.597656-129.144532-127.28125c-5.871093-5.785156-15.308593-5.75-21.136718.078125l-50.03125 50.234375c-14.863282 0-87.585938 0-102.425782 0l-50.035156-50.234375c-5.828125-5.828125-15.265625-5.863281-21.136718-.078125l-129.144532 127.28125c-2.878906 2.835938-4.4921872 6.714844-4.472656 10.753906.0195312 4.042969 1.667969 7.902344 4.574219 10.710938l51.722656 50.003906v6.367188c0 18.171875 5.574219 35.472656 15.875 50-14.15625 17.613281-13.15625 43.484375 3.304687 59.945312 7.910157 7.910156 18.25 12.515625 29.335938 13.113282.589844 10.675781 4.953125 21.175781 13.089844 29.3125 8.140625 8.144531 18.65625 12.5 29.339844 13.085937.585937 10.683594 4.941406 21.195313 13.085937 29.339844 15.988281 15.988281 41.222656 17.476562 58.9375 4.082031l10.964844 10.964844c8.816406 8.820312 20.398437 13.226562 31.984375 13.226562 11.582031 0 23.167968-4.410156 31.984375-13.226562 4.074219-4.074219 7.191406-8.761719 9.375-13.777344 17.292969 9.851562 39.539062 7.289062 54.101562-7.269531 8.140625-8.144531 12.5-18.65625 13.082031-29.34375 10.683594-.582031 21.199219-4.941407 29.34375-13.082031 7.910157-7.914063 12.507813-18.257813 13.109376-29.34375 10.675781-.589844 21.179687-4.945313 29.316406-13.082032 8.5-8.5 13.179687-19.800781 13.179687-31.820312 0-10.492188-3.566406-20.433594-10.125-28.441406 6.585938-10.449219 10.125-22.546876 10.125-35.199219v-14.851563l51.722657-50.003906c2.902343-2.808594 4.554687-6.667969 4.574218-10.710938.015625-4.039062-1.597656-7.917968-4.476562-10.753906zm-471.054688 10.578125 107.597656-106.039062 43.898438 43.898437c2.8125 2.8125 6.625 4.390625 10.605469 4.390625h45.777343l74.796876 74.796875c5.859374 5.859375 5.863281 15.347656 0 21.207032-5.847657 5.847656-15.363282 5.847656-21.210938 0l-29.921875-29.917969c-23.769531-23.769531-62.441406-24.324219-86.8125-.476563l-31.621094-31.621094c-5.855469-5.859374-15.355469-5.859374-21.210937 0-5.859375 5.859376-5.859375 15.355469 0 21.214844l31.605468 31.605469-66.261718 66.261719c-4.832032-8.457032-7.421875-18.058594-7.421875-28.0625 0-12.714844 1.042969-18.082032-4.574219-23.511719zm236.511719 255.890625c-5.9375 5.9375-15.601563 5.9375-21.542969 0l-10.652344-10.65625 21.710938-21.710937c11.164062 11.519531 3.71875 4.714843 12.753906 13.75 3.5 5.855469 2.742188 13.605469-2.269531 18.617187zm63.476563-21.046875c-5.851563 5.847657-15.367188 5.847657-21.214844 0-26.789063-26.789062 2.703125 2.785157-23.609375-24.363281-3.292969-5.714844-2.53125-13.136719 2.394531-18.0625 5.847656-5.847656 15.367188-5.851562 21.214844 0l21.214844 21.210938c5.847656 5.847656 5.847656 15.367187 0 21.214843zm42.425781-42.425781c-5.847657 5.847656-15.367188 5.847656-21.214844 0l-42.425781-42.429688c-5.863282-5.863281-5.863282-15.347656 0-21.210937 5.847656-5.847656 15.363281-5.847656 21.214844 0l42.425781 42.425781c5.863281 5.863282 5.863281 15.351563 0 21.214844zm42.425781-42.429688c-5.847656 5.847657-15.363281 5.851563-21.214844 0l-21.210937-21.210937c-5.863281-5.863281-5.863281-15.351563 0-21.214844 5.847656-5.847656 15.363281-5.847656 21.214843 0 5.148438 5.148438 15.882813 15.886719 21.210938 21.214844 5.847656 5.847656 5.847656 15.363281 0 21.210937zm8.96875-106.242187c-2.925781 2.828125-4.574219 6.71875-4.574219 10.785156v21.210938c0 4.410156-.792969 8.699219-2.292969 12.710937l-2.101562-2.101562c-17.542969-17.546875-46.09375-17.546875-63.640625 0-4.082031 4.082031-7.273437 8.816406-9.5 13.964844-17.179687-9.808594-39.492187-7.398438-54.140625 7.246093-14.796875 14.796875-17.035156 37.117188-7.246094 54.167969-6.527344 2.8125-13.054687 8.136719-14.179687 9.257812-10.863281 10.863282-59.46875 59.46875-69.851563 69.855469-5.851562 5.847657-15.367187 5.847657-21.214844 0-5.847656-5.851562-5.847656-15.363281 0-21.214843 3.738282-3.738282 37.105469-37.101563 42.425782-42.425782 5.859375-5.859375 5.859375-15.355468 0-21.214844-5.855469-5.859374-15.355469-5.859374-21.210938 0-5.332031 5.332032-38.070312 38.070313-42.425781 42.425782-5.847656 5.851562-15.363281 5.851562-21.214844 0-5.847656-5.847656-5.847656-15.363282 0-21.210938l42.429688-42.429687c5.855469-5.855469 5.855469-15.355469 0-21.210938-5.859375-5.859375-15.359375-5.859375-21.214844 0l-42.425781 42.425781c-5.863282 5.863282-15.351563 5.863282-21.214844 0-5.863281-5.863281-5.863281-15.347656 0-21.210937 12.488281-12.488281 92.789062-92.789063 105.230469-105.230469 12.402343-12.402344 32.480469-12.40625 44.886719 0l29.921874 29.921875c17.5625 17.558594 46.105469 17.527344 63.636719 0 8.496094-8.5 13.179688-19.796875 13.179688-31.816406s-4.683594-23.320313-13.179688-31.820313l-53.585937-53.582031h26.652344c3.976562 0 7.792968-1.582031 10.605468-4.394531l43.894532-43.894531 107.597656 106.039062zm0 0"/></symbol><symbol id="delivery" viewBox="0 0 512 512">
<g>
	<g>
		<path d="M414.004,303.627c-32.482,0-58.907,26.426-58.907,58.908c0,32.476,26.426,58.902,58.907,58.902
			c32.487,0,58.908-26.426,58.908-58.902C472.912,330.053,446.486,303.627,414.004,303.627z M414.004,388.399
			c-14.27,0-25.875-11.605-25.875-25.87c0-14.27,11.605-25.875,25.875-25.875s25.875,11.611,25.875,25.875
			C439.88,376.793,428.274,388.399,414.004,388.399z"/>
	</g>
</g>
<g>
	<g>
		<path d="M329.221,90.563H16.516C7.394,90.563,0,97.957,0,107.08v254.348c0,9.122,7.394,16.516,16.516,16.516h51.751v-33.032
			H33.032V123.596h279.673v237.832h33.032V107.08C345.738,97.957,338.344,90.563,329.221,90.563z"/>
	</g>
</g>
<g>
	<g>
		<rect x="149.196" y="344.912" width="222.417" height="33.032"/>
	</g>
</g>
<g>
	<g>
		<path d="M108.456,303.627c-32.482,0-58.908,26.426-58.908,58.908c0,32.476,26.426,58.902,58.908,58.902
			c32.482,0,58.908-26.426,58.908-58.902C167.363,330.053,140.938,303.627,108.456,303.627z M108.456,388.399
			c-14.27,0-25.875-11.605-25.875-25.87c0-14.27,11.605-25.875,25.875-25.875c14.27,0,25.875,11.611,25.875,25.875
			C134.331,376.793,122.72,388.399,108.456,388.399z"/>
	</g>
</g>
<g>
	<g>
		<path d="M495.484,227.647H329.221v33.032h149.746v84.232h-23.673v33.032h40.189c9.122,0,16.516-7.388,16.516-16.516V244.163
			C512,235.041,504.606,227.647,495.484,227.647z"/>
	</g>
</g>
<g>
	<g>
		<path d="M445.545,159.127c-2.901-5.274-8.451-8.555-14.474-8.555H329.221v33.032h92.083l37.684,68.52l28.947-15.922
			L445.545,159.127z"/>
	</g>
</g>
<g>
</g>
<g>
</g>
<g>
</g>
<g>
</g>
<g>
</g>
<g>
</g>
<g>
</g>
<g>
</g>
<g>
</g>
<g>
</g>
<g>
</g>
<g>
</g>
<g>
</g>
<g>
</g>
<g>
</g>
</symbol><symbol id="delivery_text" viewBox="0 0 11 69">
<path d="M0.496001 66.832L0.496001 60.784L6.892 60.784L6.892 59.824L10.3 59.824L10.3 61.696L8.5 61.696L8.5 66.568L10.3 66.568L10.3 68.44L6.892 68.44C6.836 68.088 6.676 67.784 6.412 67.528C6.124 67.248 5.776 67.064 5.368 66.976C4.952 66.88 4.424 66.832 3.784 66.832L0.496001 66.832ZM2.104 64.816L3.988 64.816C4.652 64.816 5.212 64.88 5.668 65.008C6.148 65.144 6.556 65.376 6.892 65.704L6.892 62.872L2.104 62.872L2.104 64.816ZM4.504 49.67C5.688 49.67 6.684 50.09 7.492 50.93C8.284 51.762 8.68 52.814 8.68 54.086C8.68 55.358 8.284 56.41 7.492 57.242C6.684 58.082 5.688 58.502 4.504 58.502C3.952 58.502 3.412 58.398 2.884 58.19C2.356 57.974 1.896 57.658 1.504 57.242C0.712001 56.41 0.316001 55.358 0.316001 54.086C0.316001 52.814 0.712001 51.762 1.504 50.93C1.896 50.514 2.356 50.202 2.884 49.994C3.412 49.778 3.952 49.67 4.504 49.67ZM2.332 54.086C2.332 54.742 2.544 55.282 2.968 55.706C3.384 56.13 3.908 56.342 4.54 56.342C5.124 56.342 5.62 56.13 6.028 55.706C6.452 55.266 6.664 54.726 6.664 54.086C6.664 53.43 6.456 52.894 6.04 52.478C5.608 52.046 5.096 51.83 4.504 51.83C3.896 51.83 3.384 52.046 2.968 52.478C2.544 52.926 2.332 53.462 2.332 54.086ZM5.824 41.9972L8.284 41.9972C8.548 42.7252 8.68 43.3252 8.68 43.7972C8.68 45.0452 8.28 46.0772 7.48 46.8932C7.096 47.2772 6.648 47.5772 6.136 47.7932C5.616 48.0012 5.092 48.1052 4.564 48.1052C4.012 48.1052 3.476 47.9972 2.956 47.7812C2.436 47.5572 1.988 47.2612 1.612 46.8932C0.780001 46.0772 0.364 45.0692 0.364 43.8692C0.364 43.2852 0.5 42.6612 0.772 41.9972L3.256 41.9972C2.672 42.4692 2.38 43.0732 2.38 43.8092C2.38 44.3772 2.556 44.8572 2.908 45.2492C3.34 45.7132 3.888 45.9452 4.552 45.9452C5.184 45.9452 5.704 45.7292 6.112 45.2972C6.48 44.9052 6.664 44.4092 6.664 43.8092C6.664 43.1132 6.384 42.5092 5.824 41.9972ZM2.26 35.0461L2.26 36.7501L8.5 36.7501L8.5 38.8261L2.26 38.8261L2.26 40.5301L0.496 40.5301L0.496 35.0461L2.26 35.0461ZM8.5 28.5129L7.156 29.0049L7.156 31.9089L8.5 32.4489L8.5 34.6449L0.496 31.5729L0.496 29.3049L8.5 26.2929L8.5 28.5129ZM5.572 31.3329L5.572 29.5569L2.98 30.4569L5.572 31.3329ZM8.5 21.4334L8.5 24.7694L0.495999 24.7694L0.495999 21.6734C0.495999 20.8814 0.703999 20.2974 1.12 19.9214C1.48 19.5934 1.98 19.4294 2.62 19.4294C2.972 19.4294 3.3 19.5054 3.604 19.6574C3.9 19.8174 4.108 20.0334 4.228 20.3054C4.276 19.8574 4.436 19.4934 4.708 19.2134C5.052 18.8534 5.54 18.6734 6.172 18.6734C6.828 18.6734 7.352 18.8694 7.744 19.2614C8.248 19.7494 8.5 20.4734 8.5 21.4334ZM2.092 22.6934L3.652 22.6934L3.652 22.3094C3.652 21.9414 3.568 21.6774 3.4 21.5174C3.272 21.3894 3.096 21.3254 2.872 21.3254C2.656 21.3254 2.476 21.3894 2.332 21.5174C2.172 21.6774 2.092 21.9414 2.092 22.3094L2.092 22.6934ZM5.2 22.6934L6.88 22.6934L6.88 22.2254C6.88 21.5534 6.772 21.1254 6.556 20.9414C6.428 20.8294 6.256 20.7734 6.04 20.7734C5.792 20.7734 5.6 20.8414 5.464 20.9774C5.288 21.1534 5.2 21.5814 5.2 22.2614L5.2 22.6934ZM0.495999 14.6754L3.796 14.6754L0.495999 12.1314L0.495999 9.56341L4.288 12.7434L8.5 9.27541L8.5 11.9634L5.032 14.6754L8.5 14.6754L8.5 16.7514L0.495999 16.7514L0.495999 14.6754ZM8.5 2.30275L7.156 2.79475L7.156 5.69875L8.5 6.23875L8.5 8.43475L0.495998 5.36275L0.495998 3.09475L8.5 0.0827487L8.5 2.30275ZM5.572 5.12275L5.572 3.34675L2.98 4.24675L5.572 5.12275Z" fill="white"/>
</symbol><symbol id="docs" viewBox="0 0 512 512"><path d="m106 512h300c24.814 0 45-20.186 45-45v-317h-105c-24.814 0-45-20.186-45-45v-105h-195c-24.814 0-45 20.186-45 45v422c0 24.814 20.186 45 45 45zm60-301h180c8.291 0 15 6.709 15 15s-6.709 15-15 15h-180c-8.291 0-15-6.709-15-15s6.709-15 15-15zm0 60h180c8.291 0 15 6.709 15 15s-6.709 15-15 15h-180c-8.291 0-15-6.709-15-15s6.709-15 15-15zm0 60h180c8.291 0 15 6.709 15 15s-6.709 15-15 15h-180c-8.291 0-15-6.709-15-15s6.709-15 15-15zm0 60h120c8.291 0 15 6.709 15 15s-6.709 15-15 15h-120c-8.291 0-15-6.709-15-15s6.709-15 15-15z"/><path d="m346 120h96.211l-111.211-111.211v96.211c0 8.276 6.724 15 15 15z"/></symbol><symbol id="engine" viewBox="0 0 512 512">
<g>
	<g>
		<path d="M480,213.333c-17.646,0-32,14.354-32,32v32h-21.333V237.25c0-11.229-4.552-22.229-12.5-30.167l-23.917-23.917
			c-7.938-7.948-18.938-12.5-30.167-12.5h-61.417V128h32c17.646,0,32-14.354,32-32s-14.354-32-32-32h-128c-17.646,0-32,14.354-32,32
			s14.354,32,32,32h32v42.667h-40.083c-11.229,0-22.229,4.552-30.167,12.5l-30.167,30.167h-16.917c-17.646,0-32,14.354-32,32v32H64
			v-32c0-17.646-14.354-32-32-32s-32,14.354-32,32v128c0,17.646,14.354,32,32,32s32-14.354,32-32v-32h21.333v32
			c0,17.646,14.354,32,32,32h16.917l30.167,30.167c7.938,7.948,18.938,12.5,30.167,12.5H338.75c11.229,0,22.229-4.552,30.167-12.5
			l45.25-45.25c7.948-7.938,12.5-18.938,12.5-30.167v-18.75H448v32c0,17.646,14.354,32,32,32s32-14.354,32-32v-128
			C512,227.688,497.646,213.333,480,213.333z M490.668,373.333L490.668,373.333C490.667,379.218,485.886,384,480,384
			c-5.885,0-10.667-4.781-10.667-10.667v-42.667c0-5.896-4.771-10.667-10.667-10.667H416c-5.896,0-10.667,4.771-10.667,10.667
			v29.417c0,5.615-2.281,11.115-6.25,15.083l-45.25,45.25c-3.969,3.969-9.469,6.25-15.083,6.25H194.583
			c-5.615,0-11.115-2.281-15.083-6.25l-33.292-33.292c-2-2-4.708-3.125-7.542-3.125h-21.333c-5.885,0-10.667-4.781-10.667-10.667
			v-42.667c0-5.896-4.771-10.667-10.667-10.667H53.333c-5.896,0-10.667,4.771-10.667,10.667v42.667
			C42.667,379.219,37.885,384,32,384s-10.667-4.781-10.667-10.667v-128c0-5.885,4.781-10.667,10.667-10.667
			s10.667,4.781,10.667,10.667V288c0,5.896,4.771,10.667,10.667,10.667H96c5.896,0,10.667-4.771,10.667-10.667v-42.667
			c0-5.885,4.781-10.667,10.667-10.667h21.333c2.833,0,5.542-1.125,7.542-3.125L179.5,198.25c3.969-3.969,9.469-6.25,15.083-6.25
			h50.75c5.896,0,10.667-4.771,10.667-10.667v-64c0-5.896-4.771-10.667-10.667-10.667h-42.667C196.781,106.667,192,101.885,192,96
			s4.781-10.667,10.667-10.667h128c5.885,0,10.667,4.781,10.667,10.667s-4.781,10.667-10.667,10.667H288
			c-5.896,0-10.667,4.771-10.667,10.667v64c0,5.896,4.771,10.667,10.667,10.667h72.083c5.615,0,11.115,2.281,15.083,6.25
			l23.917,23.917c3.969,3.969,6.25,9.469,6.25,15.083V288c0,5.896,4.771,10.667,10.667,10.667h42.667
			c5.896,0,10.667-4.771,10.667-10.667v-42.667c0-5.885,4.781-10.667,10.667-10.667c5.885,0,10.667,4.781,10.667,10.667V373.333z"/>
	</g>
</g>
<g>
</g>
<g>
</g>
<g>
</g>
<g>
</g>
<g>
</g>
<g>
</g>
<g>
</g>
<g>
</g>
<g>
</g>
<g>
</g>
<g>
</g>
<g>
</g>
<g>
</g>
<g>
</g>
<g>
</g>
</symbol><symbol id="facebook" viewBox="-21 -21 682.66669 682.66669"><path d="m604.671875 0h-569.375c-19.496094.0117188-35.30078125 15.824219-35.296875 35.328125v569.375c.0117188 19.496094 15.824219 35.300781 35.328125 35.296875h306.546875v-247.5h-83.125v-96.875h83.125v-71.292969c0-82.675781 50.472656-127.675781 124.222656-127.675781 35.324219 0 65.679688 2.632812 74.527344 3.808594v86.410156h-50.855469c-40.125 0-47.894531 19.066406-47.894531 47.050781v61.699219h95.9375l-12.5 96.875h-83.4375v247.5h162.796875c19.507813.003906 35.324219-15.804688 35.328125-35.3125 0-.003906 0-.007812 0-.015625v-569.375c-.007812-19.496094-15.824219-35.30078125-35.328125-35.296875zm0 0"/></symbol><symbol id="help" viewBox="0 0 512 512"><path d="m512 346.5c0-74.628906-50.285156-139.832031-121.195312-159.480469-4.457032-103.878906-90.347657-187.019531-195.304688-187.019531-107.800781 0-195.5 87.699219-195.5 195.5 0 35.132812 9.351562 69.339844 27.109375 99.371094l-26.390625 95.40625 95.410156-26.386719c27.605469 16.324219 58.746094 25.519531 90.886719 26.90625 19.644531 70.914063 84.851563 121.203125 159.484375 121.203125 29.789062 0 58.757812-7.933594 84.210938-23.007812l80.566406 22.285156-22.285156-80.566406c15.074218-25.453126 23.007812-54.421876 23.007812-84.210938zm-411.136719-15.046875-57.117187 15.800781 15.800781-57.117187-3.601563-5.632813c-16.972656-26.554687-25.945312-57.332031-25.945312-89.003906 0-91.257812 74.242188-165.5 165.5-165.5s165.5 74.242188 165.5 165.5-74.242188 165.5-165.5 165.5c-31.671875 0-62.445312-8.972656-89.003906-25.945312zm367.390625 136.800781-42.382812-11.726562-5.660156 3.683594c-21.941407 14.253906-47.433594 21.789062-73.710938 21.789062-58.65625 0-110.199219-37.925781-128.460938-92.308594 89.820313-10.355468 161.296876-81.832031 171.65625-171.65625 54.378907 18.265625 92.304688 69.808594 92.304688 128.464844 0 26.277344-7.535156 51.769531-21.789062 73.710938l-3.683594 5.660156zm0 0"/><path d="m180.5 271h30v30h-30zm0 0"/><path d="m225.5 150c0 8.519531-3.46875 16.382812-9.765625 22.144531l-35.234375 32.25v36.605469h30v-23.394531l25.488281-23.328125c12.398438-11.347656 19.511719-27.484375 19.511719-44.277344 0-33.085938-26.914062-60-60-60s-60 26.914062-60 60h30c0-16.542969 13.457031-30 30-30s30 13.457031 30 30zm0 0"/></symbol><symbol id="instagram" viewBox="0 0 511 511.9"><path d="m510.949219 150.5c-1.199219-27.199219-5.597657-45.898438-11.898438-62.101562-6.5-17.199219-16.5-32.597657-29.601562-45.398438-12.800781-13-28.300781-23.101562-45.300781-29.5-16.296876-6.300781-34.898438-10.699219-62.097657-11.898438-27.402343-1.300781-36.101562-1.601562-105.601562-1.601562s-78.199219.300781-105.5 1.5c-27.199219 1.199219-45.898438 5.601562-62.097657 11.898438-17.203124 6.5-32.601562 16.5-45.402343 29.601562-13 12.800781-23.097657 28.300781-29.5 45.300781-6.300781 16.300781-10.699219 34.898438-11.898438 62.097657-1.300781 27.402343-1.601562 36.101562-1.601562 105.601562s.300781 78.199219 1.5 105.5c1.199219 27.199219 5.601562 45.898438 11.902343 62.101562 6.5 17.199219 16.597657 32.597657 29.597657 45.398438 12.800781 13 28.300781 23.101562 45.300781 29.5 16.300781 6.300781 34.898438 10.699219 62.101562 11.898438 27.296876 1.203124 36 1.5 105.5 1.5s78.199219-.296876 105.5-1.5c27.199219-1.199219 45.898438-5.597657 62.097657-11.898438 34.402343-13.300781 61.601562-40.5 74.902343-74.898438 6.296876-16.300781 10.699219-34.902343 11.898438-62.101562 1.199219-27.300781 1.5-36 1.5-105.5s-.101562-78.199219-1.300781-105.5zm-46.097657 209c-1.101562 25-5.300781 38.5-8.800781 47.5-8.601562 22.300781-26.300781 40-48.601562 48.601562-9 3.5-22.597657 7.699219-47.5 8.796876-27 1.203124-35.097657 1.5-103.398438 1.5s-76.5-.296876-103.402343-1.5c-25-1.097657-38.5-5.296876-47.5-8.796876-11.097657-4.101562-21.199219-10.601562-29.398438-19.101562-8.5-8.300781-15-18.300781-19.101562-29.398438-3.5-9-7.699219-22.601562-8.796876-47.5-1.203124-27-1.5-35.101562-1.5-103.402343s.296876-76.5 1.5-103.398438c1.097657-25 5.296876-38.5 8.796876-47.5 4.101562-11.101562 10.601562-21.199219 19.203124-29.402343 8.296876-8.5 18.296876-15 29.398438-19.097657 9-3.5 22.601562-7.699219 47.5-8.800781 27-1.199219 35.101562-1.5 103.398438-1.5 68.402343 0 76.5.300781 103.402343 1.5 25 1.101562 38.5 5.300781 47.5 8.800781 11.097657 4.097657 21.199219 10.597657 29.398438 19.097657 8.5 8.300781 15 18.300781 19.101562 29.402343 3.5 9 7.699219 22.597657 8.800781 47.5 1.199219 27 1.5 35.097657 1.5 103.398438s-.300781 76.300781-1.5 103.300781zm0 0"/><path d="m256.449219 124.5c-72.597657 0-131.5 58.898438-131.5 131.5s58.902343 131.5 131.5 131.5c72.601562 0 131.5-58.898438 131.5-131.5s-58.898438-131.5-131.5-131.5zm0 216.800781c-47.097657 0-85.300781-38.199219-85.300781-85.300781s38.203124-85.300781 85.300781-85.300781c47.101562 0 85.300781 38.199219 85.300781 85.300781s-38.199219 85.300781-85.300781 85.300781zm0 0"/><path d="m423.851562 119.300781c0 16.953125-13.746093 30.699219-30.703124 30.699219-16.953126 0-30.699219-13.746094-30.699219-30.699219 0-16.957031 13.746093-30.699219 30.699219-30.699219 16.957031 0 30.703124 13.742188 30.703124 30.699219zm0 0"/></symbol><symbol id="key" viewBox="0 0 455 455">
<path d="M416.296,38.642c-51.523-51.523-135.058-51.523-186.581,0c-41.222,41.222-49.457,102.934-24.718,152.35L0.183,395.811
	l-0.122,59.059L114.593,455v-55.705h55.705l0-55.705h55.705l0-55.705l37.943-37.943c49.416,24.74,111.128,16.504,152.35-24.718
	C467.82,173.701,467.82,90.165,416.296,38.642z M374.355,137.001c-15.579,15.579-40.838,15.579-56.418,0s-15.579-40.838,0-56.418
	s40.838-15.579,56.418,0C389.935,96.163,389.935,121.422,374.355,137.001z"/>
<g>
</g>
<g>
</g>
<g>
</g>
<g>
</g>
<g>
</g>
<g>
</g>
<g>
</g>
<g>
</g>
<g>
</g>
<g>
</g>
<g>
</g>
<g>
</g>
<g>
</g>
<g>
</g>
<g>
</g>
</symbol><symbol id="logo" viewBox="0 0 254 60">
<path d="M9.68652 7.14453H6.80566L5.83398 9H4.85254L8.71484 1.89062H9.52051L10.9268 9H10.0234L9.68652 7.14453ZM7.21094 6.37305H9.5498L8.95898 3.05762L7.21094 6.37305ZM17.9434 1.89062L17.123 6.7002C17.0124 7.43913 16.6934 8.02832 16.166 8.46777C15.6387 8.90397 15.0023 9.11556 14.2568 9.10254C13.7913 9.09277 13.3861 8.98861 13.041 8.79004C12.6992 8.58822 12.4469 8.30664 12.2842 7.94531C12.1214 7.58073 12.0677 7.16732 12.123 6.70508L12.9434 1.89062H13.8467L13.0312 6.70996C12.9759 7.20801 13.0605 7.60026 13.2852 7.88672C13.5098 8.16992 13.8499 8.31803 14.3057 8.33105C14.8005 8.35059 15.2171 8.21712 15.5557 7.93066C15.8975 7.64095 16.1123 7.23568 16.2002 6.71484L17.0205 1.89062H17.9434ZM24.0322 2.66211H21.8203L20.7217 9H19.8086L20.9072 2.66211H18.6953L18.832 1.89062H24.1689L24.0322 2.66211ZM26.4736 9.09766C26.0212 9.08789 25.6273 8.97884 25.292 8.77051C24.96 8.56217 24.6979 8.25618 24.5059 7.85254C24.3138 7.44564 24.208 6.98991 24.1885 6.48535C24.1689 6.09147 24.2129 5.60482 24.3203 5.02539C24.4277 4.44596 24.6133 3.9235 24.877 3.45801C25.1406 2.99251 25.4613 2.61979 25.8389 2.33984C26.3499 1.96224 26.9326 1.77995 27.5869 1.79297C28.2803 1.80599 28.8271 2.04688 29.2275 2.51562C29.6279 2.98112 29.8428 3.61263 29.8721 4.41016C29.8851 4.75195 29.8493 5.18652 29.7646 5.71387C29.6833 6.24121 29.5352 6.73112 29.3203 7.18359C29.1087 7.63607 28.8385 8.0153 28.5098 8.32129C27.9368 8.85514 27.2581 9.11393 26.4736 9.09766ZM28.9688 4.63477C28.9883 3.99349 28.876 3.49707 28.6318 3.14551C28.3877 2.79069 28.0247 2.60677 27.543 2.59375C27.1068 2.58073 26.7161 2.69792 26.3711 2.94531C26.0293 3.19271 25.7477 3.5638 25.5264 4.05859C25.3083 4.55013 25.1699 5.1735 25.1113 5.92871L25.0967 6.24609C25.0771 6.88411 25.1911 7.38379 25.4385 7.74512C25.6859 8.10645 26.0456 8.29362 26.5176 8.30664C27.1328 8.32292 27.6423 8.10156 28.0459 7.64258C28.4528 7.18034 28.723 6.53255 28.8564 5.69922C28.9215 5.28906 28.959 4.93424 28.9688 4.63477ZM34.0176 9H33.1045L34.3398 1.89062H35.2529L34.0176 9ZM38.1143 1.89062L39.3594 7.68164L42.6211 1.89062H43.8271L42.5918 9H41.6787L42.167 6.1875L42.748 3.32617L39.5254 9H38.8223L37.5527 3.21387L37.1133 6.28027L36.6396 9H35.7217L36.957 1.89062H38.1143ZM45.6387 6.2168L45.1553 9H44.2373L45.4727 1.89062L47.8457 1.89551C48.5781 1.89551 49.1429 2.09082 49.54 2.48145C49.9372 2.86882 50.1081 3.38477 50.0527 4.0293C49.9941 4.70964 49.7223 5.24512 49.2373 5.63574C48.7555 6.02637 48.1191 6.22168 47.3281 6.22168L45.6387 6.2168ZM45.7705 5.4502L47.3525 5.45508C47.8506 5.45508 48.2591 5.32975 48.5781 5.0791C48.8971 4.82845 49.0843 4.48014 49.1396 4.03418C49.1917 3.63379 49.1087 3.3099 48.8906 3.0625C48.6725 2.81185 48.3551 2.68001 47.9385 2.66699L46.2539 2.66211L45.7705 5.4502ZM53.0166 9.09766C52.5641 9.08789 52.1702 8.97884 51.835 8.77051C51.5029 8.56217 51.2409 8.25618 51.0488 7.85254C50.8568 7.44564 50.751 6.98991 50.7314 6.48535C50.7119 6.09147 50.7559 5.60482 50.8633 5.02539C50.9707 4.44596 51.1562 3.9235 51.4199 3.45801C51.6836 2.99251 52.0042 2.61979 52.3818 2.33984C52.8929 1.96224 53.4756 1.77995 54.1299 1.79297C54.8232 1.80599 55.3701 2.04688 55.7705 2.51562C56.1709 2.98112 56.3857 3.61263 56.415 4.41016C56.4281 4.75195 56.3923 5.18652 56.3076 5.71387C56.2262 6.24121 56.0781 6.73112 55.8633 7.18359C55.6517 7.63607 55.3815 8.0153 55.0527 8.32129C54.4798 8.85514 53.8011 9.11393 53.0166 9.09766ZM55.5117 4.63477C55.5312 3.99349 55.4189 3.49707 55.1748 3.14551C54.9307 2.79069 54.5677 2.60677 54.0859 2.59375C53.6497 2.58073 53.2591 2.69792 52.9141 2.94531C52.5723 3.19271 52.2907 3.5638 52.0693 4.05859C51.8512 4.55013 51.7129 5.1735 51.6543 5.92871L51.6396 6.24609C51.6201 6.88411 51.734 7.38379 51.9814 7.74512C52.2288 8.10645 52.5885 8.29362 53.0605 8.30664C53.6758 8.32292 54.1852 8.10156 54.5889 7.64258C54.9958 7.18034 55.266 6.53255 55.3994 5.69922C55.4645 5.28906 55.502 4.93424 55.5117 4.63477ZM60.1846 6.12402H58.5439L58.0459 9H57.123L58.3584 1.89062L60.4971 1.89551C61.2425 1.89876 61.8105 2.08757 62.2012 2.46191C62.5918 2.83626 62.7562 3.3457 62.6943 3.99023C62.6585 4.4362 62.4958 4.82845 62.2061 5.16699C61.9196 5.50553 61.5371 5.76107 61.0586 5.93359L62.1621 8.93652L62.1572 9H61.1807L60.1846 6.12402ZM58.6758 5.35742L60.0234 5.3623C60.4922 5.3623 60.8877 5.23861 61.21 4.99121C61.5322 4.74056 61.721 4.4069 61.7764 3.99023C61.8252 3.58333 61.7438 3.26432 61.5322 3.0332C61.3206 2.80208 60.9984 2.68001 60.5654 2.66699L59.1445 2.66211L58.6758 5.35742ZM68.6318 2.66211H66.4199L65.3213 9H64.4082L65.5068 2.66211H63.2949L63.4316 1.89062H68.7686L68.6318 2.66211ZM76.2783 6.73438C76.1416 7.47005 75.8079 8.05273 75.2773 8.48242C74.75 8.91211 74.1169 9.11719 73.3779 9.09766C72.9385 9.08789 72.5544 8.98047 72.2256 8.77539C71.8968 8.56706 71.6413 8.26921 71.459 7.88184C71.2767 7.49121 71.1758 7.0599 71.1562 6.58789C71.1432 6.32096 71.1546 6.06055 71.1904 5.80664L71.2734 5.2207C71.4264 4.15299 71.8008 3.31152 72.3965 2.69629C72.9954 2.0778 73.723 1.77669 74.5791 1.79297C75.2464 1.80599 75.7754 2.02246 76.166 2.44238C76.5566 2.85905 76.7633 3.43848 76.7861 4.18066H75.873C75.8307 3.18457 75.4401 2.64746 74.7012 2.56934L74.54 2.55957C73.9248 2.54329 73.4105 2.77279 72.9971 3.24805C72.5869 3.72005 72.3216 4.36621 72.2012 5.18652L72.0938 5.92383L72.0645 6.35352C72.0449 6.95247 72.1507 7.42936 72.3818 7.78418C72.6162 8.13574 72.9629 8.31803 73.4219 8.33105C73.9167 8.34733 74.3252 8.22852 74.6475 7.97461C74.973 7.7207 75.2204 7.31217 75.3896 6.74902L76.2783 6.73438ZM79.833 9.09766C79.3805 9.08789 78.9867 8.97884 78.6514 8.77051C78.3193 8.56217 78.0573 8.25618 77.8652 7.85254C77.6732 7.44564 77.5674 6.98991 77.5479 6.48535C77.5283 6.09147 77.5723 5.60482 77.6797 5.02539C77.7871 4.44596 77.9727 3.9235 78.2363 3.45801C78.5 2.99251 78.8206 2.61979 79.1982 2.33984C79.7093 1.96224 80.292 1.77995 80.9463 1.79297C81.6396 1.80599 82.1865 2.04688 82.5869 2.51562C82.9873 2.98112 83.2021 3.61263 83.2314 4.41016C83.2445 4.75195 83.2087 5.18652 83.124 5.71387C83.0426 6.24121 82.8945 6.73112 82.6797 7.18359C82.4681 7.63607 82.1979 8.0153 81.8691 8.32129C81.2962 8.85514 80.6175 9.11393 79.833 9.09766ZM82.3281 4.63477C82.3477 3.99349 82.2354 3.49707 81.9912 3.14551C81.7471 2.79069 81.3841 2.60677 80.9023 2.59375C80.4661 2.58073 80.0755 2.69792 79.7305 2.94531C79.3887 3.19271 79.1071 3.5638 78.8857 4.05859C78.6676 4.55013 78.5293 5.1735 78.4707 5.92871L78.4561 6.24609C78.4365 6.88411 78.5505 7.38379 78.7979 7.74512C79.0452 8.10645 79.4049 8.29362 79.877 8.30664C80.4922 8.32292 81.0016 8.10156 81.4053 7.64258C81.8122 7.18034 82.0824 6.53255 82.2158 5.69922C82.2809 5.28906 82.3184 4.93424 82.3281 4.63477ZM86.3369 1.89062L87.582 7.68164L90.8438 1.89062H92.0498L90.8145 9H89.9014L90.3896 6.1875L90.9707 3.32617L87.748 9H87.0449L85.7754 3.21387L85.3359 6.28027L84.8623 9H83.9443L85.1797 1.89062H86.3369ZM93.8613 6.2168L93.3779 9H92.46L93.6953 1.89062L96.0684 1.89551C96.8008 1.89551 97.3656 2.09082 97.7627 2.48145C98.1598 2.86882 98.3307 3.38477 98.2754 4.0293C98.2168 4.70964 97.945 5.24512 97.46 5.63574C96.9782 6.02637 96.3418 6.22168 95.5508 6.22168L93.8613 6.2168ZM93.9932 5.4502L95.5752 5.45508C96.0732 5.45508 96.4818 5.32975 96.8008 5.0791C97.1198 4.82845 97.307 4.48014 97.3623 4.03418C97.4144 3.63379 97.3314 3.3099 97.1133 3.0625C96.8952 2.81185 96.5778 2.68001 96.1611 2.66699L94.4766 2.66211L93.9932 5.4502ZM102.108 7.14453H99.2275L98.2559 9H97.2744L101.137 1.89062H101.942L103.349 9H102.445L102.108 7.14453ZM99.6328 6.37305H101.972L101.381 3.05762L99.6328 6.37305ZM109.643 9H108.754L106.215 3.48242L105.258 9H104.335L105.57 1.89062H106.459L109.003 7.43262L109.965 1.89062H110.878L109.643 9ZM113.856 5.45508L116.273 1.89062H117.367L114.179 6.39746L113.725 9H112.812L113.28 6.29492L111.693 1.89062H112.689L113.856 5.45508Z" fill="white"/>
<path d="M9.16406 45.6719H23.0625L21.9609 52H0.046875L5.95312 17.875H13.9922L9.16406 45.6719ZM25.5469 52L31.4531 17.875L41.4844 17.8984C44.4375 17.8984 47.0156 18.6797 49.2188 20.2422C51.4219 21.7891 52.9844 23.9062 53.9062 26.5938C54.7031 28.9531 54.9453 31.5 54.6328 34.2344L54.4688 35.6641C54.0469 38.7266 53.0312 41.5 51.4219 43.9844C49.8125 46.4688 47.7422 48.4219 45.2109 49.8438C42.6797 51.25 39.9453 51.9688 37.0078 52H25.5469ZM38.3906 24.2266L34.6641 45.6719L37.0078 45.6953C39.7578 45.6953 41.9609 44.6328 43.6172 42.5078C45.2891 40.3828 46.2812 37.1328 46.5938 32.7578L46.6406 31.9844C46.75 29.4844 46.3594 27.5859 45.4688 26.2891C44.5781 24.9922 43.2422 24.3125 41.4609 24.25L38.3906 24.2266Z" fill="#59B32B"/>
<path d="M69.2109 17.875L76.8281 41.6172L84.4219 17.875H95.25V52H87V44.0312L87.7969 27.7188L79.5469 52H74.1094L65.8359 27.6953L66.6328 44.0312V52H58.4062V17.875H69.2109ZM129.398 35.6406C129.398 38.9688 128.781 41.9141 127.547 44.4766C126.312 47.0391 124.555 49.0156 122.273 50.4062C120.008 51.7812 117.422 52.4688 114.516 52.4688C111.609 52.4688 109.031 51.8047 106.781 50.4766C104.531 49.1328 102.773 47.2188 101.508 44.7344C100.258 42.25 99.6016 39.3984 99.5391 36.1797V34.2578C99.5391 30.9141 100.148 27.9688 101.367 25.4219C102.602 22.8594 104.359 20.8828 106.641 19.4922C108.938 18.1016 111.547 17.4062 114.469 17.4062C117.359 17.4062 119.938 18.0938 122.203 19.4688C124.469 20.8438 126.227 22.8047 127.477 25.3516C128.742 27.8828 129.383 30.7891 129.398 34.0703V35.6406ZM121.031 34.2109C121.031 30.8203 120.461 28.25 119.32 26.5C118.195 24.7344 116.578 23.8516 114.469 23.8516C110.344 23.8516 108.164 26.9453 107.93 33.1328L107.906 35.6406C107.906 38.9844 108.461 41.5547 109.57 43.3516C110.68 45.1484 112.328 46.0469 114.516 46.0469C116.594 46.0469 118.195 45.1641 119.32 43.3984C120.445 41.6328 121.016 39.0938 121.031 35.7812V34.2109ZM158.414 24.2266H148.172V52H139.945V24.2266H129.891V17.875H158.414V24.2266ZM190.148 35.6406C190.148 38.9688 189.531 41.9141 188.297 44.4766C187.062 47.0391 185.305 49.0156 183.023 50.4062C180.758 51.7812 178.172 52.4688 175.266 52.4688C172.359 52.4688 169.781 51.8047 167.531 50.4766C165.281 49.1328 163.523 47.2188 162.258 44.7344C161.008 42.25 160.352 39.3984 160.289 36.1797V34.2578C160.289 30.9141 160.898 27.9688 162.117 25.4219C163.352 22.8594 165.109 20.8828 167.391 19.4922C169.688 18.1016 172.297 17.4062 175.219 17.4062C178.109 17.4062 180.688 18.0938 182.953 19.4688C185.219 20.8438 186.977 22.8047 188.227 25.3516C189.492 27.8828 190.133 30.7891 190.148 34.0703V35.6406ZM181.781 34.2109C181.781 30.8203 181.211 28.25 180.07 26.5C178.945 24.7344 177.328 23.8516 175.219 23.8516C171.094 23.8516 168.914 26.9453 168.68 33.1328L168.656 35.6406C168.656 38.9844 169.211 41.5547 170.32 43.3516C171.43 45.1484 173.078 46.0469 175.266 46.0469C177.344 46.0469 178.945 45.1641 180.07 43.3984C181.195 41.6328 181.766 39.0938 181.781 35.7812V34.2109ZM207.07 39.9531H202.617V52H194.391V17.875H207.82C211.867 17.875 215.031 18.7734 217.312 20.5703C219.594 22.3672 220.734 24.9062 220.734 28.1875C220.734 30.5625 220.25 32.5312 219.281 34.0938C218.328 35.6562 216.828 36.9219 214.781 37.8906L221.906 51.6484V52H213.094L207.07 39.9531ZM202.617 33.6016H207.82C209.383 33.6016 210.555 33.1953 211.336 32.3828C212.133 31.5547 212.531 30.4062 212.531 28.9375C212.531 27.4688 212.133 26.3203 211.336 25.4922C210.539 24.6484 209.367 24.2266 207.82 24.2266H202.617V33.6016ZM243.305 42.9297C243.305 41.7266 242.875 40.7891 242.016 40.1172C241.172 39.4453 239.68 38.75 237.539 38.0312C235.398 37.3125 233.648 36.6172 232.289 35.9453C227.867 33.7734 225.656 30.7891 225.656 26.9922C225.656 25.1016 226.203 23.4375 227.297 22C228.406 20.5469 229.969 19.4219 231.984 18.625C234 17.8125 236.266 17.4062 238.781 17.4062C241.234 17.4062 243.43 17.8438 245.367 18.7188C247.32 19.5938 248.836 20.8438 249.914 22.4688C250.992 24.0781 251.531 25.9219 251.531 28H243.328C243.328 26.6094 242.898 25.5312 242.039 24.7656C241.195 24 240.047 23.6172 238.594 23.6172C237.125 23.6172 235.961 23.9453 235.102 24.6016C234.258 25.2422 233.836 26.0625 233.836 27.0625C233.836 27.9375 234.305 28.7344 235.242 29.4531C236.18 30.1562 237.828 30.8906 240.188 31.6562C242.547 32.4062 244.484 33.2188 246 34.0938C249.688 36.2188 251.531 39.1484 251.531 42.8828C251.531 45.8672 250.406 48.2109 248.156 49.9141C245.906 51.6172 242.82 52.4688 238.898 52.4688C236.133 52.4688 233.625 51.9766 231.375 50.9922C229.141 49.9922 227.453 48.6328 226.312 46.9141C225.188 45.1797 224.625 43.1875 224.625 40.9375H232.875C232.875 42.7656 233.344 44.1172 234.281 44.9922C235.234 45.8516 236.773 46.2812 238.898 46.2812C240.258 46.2812 241.328 45.9922 242.109 45.4141C242.906 44.8203 243.305 43.9922 243.305 42.9297Z" fill="white"/>
</symbol><symbol id="mail" viewBox="0 0 512 512">
<g>
	<g>
		<path d="M467,61H45C20.218,61,0,81.196,0,106v300c0,24.72,20.128,45,45,45h422c24.72,0,45-20.128,45-45V106
			C512,81.28,491.872,61,467,61z M460.786,91L256.954,294.833L51.359,91H460.786z M30,399.788V112.069l144.479,143.24L30,399.788z
			 M51.213,421l144.57-144.57l50.657,50.222c5.864,5.814,15.327,5.795,21.167-0.046L317,277.213L460.787,421H51.213z M482,399.787
			L338.213,256L482,112.212V399.787z"/>
	</g>
</g>
<g>
</g>
<g>
</g>
<g>
</g>
<g>
</g>
<g>
</g>
<g>
</g>
<g>
</g>
<g>
</g>
<g>
</g>
<g>
</g>
<g>
</g>
<g>
</g>
<g>
</g>
<g>
</g>
<g>
</g>
</symbol><symbol id="map-mark" viewBox="0 0 512 512">
<g>
	<g>
		<path d="M256,0C153.755,0,70.573,83.182,70.573,185.426c0,126.888,165.939,313.167,173.004,321.035
			c6.636,7.391,18.222,7.378,24.846,0c7.065-7.868,173.004-194.147,173.004-321.035C441.425,83.182,358.244,0,256,0z M256,278.719
			c-51.442,0-93.292-41.851-93.292-93.293S204.559,92.134,256,92.134s93.291,41.851,93.291,93.293S307.441,278.719,256,278.719z"/>
	</g>
</g>
<g>
</g>
<g>
</g>
<g>
</g>
<g>
</g>
<g>
</g>
<g>
</g>
<g>
</g>
<g>
</g>
<g>
</g>
<g>
</g>
<g>
</g>
<g>
</g>
<g>
</g>
<g>
</g>
<g>
</g>
</symbol><symbol id="phone" viewBox="0 0 108.27 108.27">
<g>
	<path d="M51.954,66.588c-9.284-7.634-15.483-17.054-18.742-22.414l-2.431-4.583c0.85-0.912,7.332-7.853,10.141-11.619
		c3.53-4.729-1.588-9-1.588-9S24.933,4.569,21.651,1.712c-3.282-2.861-7.06-1.272-7.06-1.272C7.693,4.897,0.542,8.772,0.113,27.408
		C0.097,44.856,13.342,62.852,27.665,76.784c14.346,15.734,34.043,31.504,53.086,31.486c18.634-0.425,22.508-7.575,26.965-14.473
		c0,0,1.59-3.775-1.268-7.06c-2.86-3.284-17.265-17.688-17.265-17.688s-4.268-5.119-8.998-1.586
		c-3.525,2.635-9.855,8.496-11.38,9.917C68.808,77.385,58.219,71.74,51.954,66.588z"/>
</g>
<g>
</g>
<g>
</g>
<g>
</g>
<g>
</g>
<g>
</g>
<g>
</g>
<g>
</g>
<g>
</g>
<g>
</g>
<g>
</g>
<g>
</g>
<g>
</g>
<g>
</g>
<g>
</g>
<g>
</g>
</symbol><symbol id="service" viewBox="0 0 48 10">
<path d="M4.76837e-07 0.995999L2.328 0.995999L3.852 4.56L5.184 0.995999L7.404 0.995999L3.804 9H1.608L2.724 6.756L4.76837e-07 0.995999ZM14.3599 6.324V8.784C13.6319 9.048 13.0319 9.18 12.5599 9.18C11.3119 9.18 10.2799 8.78 9.46388 7.98C9.07988 7.596 8.77988 7.148 8.56388 6.636C8.35588 6.116 8.25188 5.592 8.25188 5.064C8.25188 4.512 8.35988 3.976 8.57588 3.456C8.79988 2.936 9.09588 2.488 9.46388 2.112C10.2799 1.28 11.2879 0.864 12.4879 0.864C13.0719 0.864 13.6959 1 14.3599 1.272V3.756C13.8879 3.172 13.2839 2.88 12.5479 2.88C11.9799 2.88 11.4999 3.056 11.1079 3.408C10.6439 3.84 10.4119 4.388 10.4119 5.052C10.4119 5.684 10.6279 6.204 11.0599 6.612C11.4519 6.98 11.9479 7.164 12.5479 7.164C13.2439 7.164 13.8479 6.884 14.3599 6.324ZM17.1755 0.995999L23.3435 0.995999V9H21.2555V2.748L19.2395 2.748V5.664C19.2395 6.944 18.9595 7.864 18.3995 8.424C17.9275 8.88 17.3035 9.108 16.5275 9.108C16.2075 9.108 15.8915 9.072 15.5795 9V7.08C15.7475 7.136 15.9075 7.164 16.0595 7.164C16.3475 7.164 16.5795 7.084 16.7555 6.924C17.0355 6.668 17.1755 6.164 17.1755 5.412V0.995999ZM24.7805 0.995999L27.1085 0.995999L28.6325 4.56L29.9645 0.995999L32.1845 0.995999L28.5845 9L26.3885 9L27.5045 6.756L24.7805 0.995999ZM38.377 0.995999V2.76L35.773 2.76V9H33.697V0.995999L38.377 0.995999ZM40.215 0.995999L42.303 0.995999V6.036L45.303 0.995999L47.427 0.995999V9H45.339V3.96L42.339 9H40.215V0.995999Z" fill="white"/>
</symbol><symbol id="settings" viewBox="0 0 512 512"><path d="m272.066 512h-32.133c-25.989 0-47.134-21.144-47.134-47.133v-10.871c-11.049-3.53-21.784-7.986-32.097-13.323l-7.704 7.704c-18.659 18.682-48.548 18.134-66.665-.007l-22.711-22.71c-18.149-18.129-18.671-48.008.006-66.665l7.698-7.698c-5.337-10.313-9.792-21.046-13.323-32.097h-10.87c-25.988 0-47.133-21.144-47.133-47.133v-32.134c0-25.989 21.145-47.133 47.134-47.133h10.87c3.531-11.05 7.986-21.784 13.323-32.097l-7.704-7.703c-18.666-18.646-18.151-48.528.006-66.665l22.713-22.712c18.159-18.184 48.041-18.638 66.664.006l7.697 7.697c10.313-5.336 21.048-9.792 32.097-13.323v-10.87c0-25.989 21.144-47.133 47.134-47.133h32.133c25.989 0 47.133 21.144 47.133 47.133v10.871c11.049 3.53 21.784 7.986 32.097 13.323l7.704-7.704c18.659-18.682 48.548-18.134 66.665.007l22.711 22.71c18.149 18.129 18.671 48.008-.006 66.665l-7.698 7.698c5.337 10.313 9.792 21.046 13.323 32.097h10.87c25.989 0 47.134 21.144 47.134 47.133v32.134c0 25.989-21.145 47.133-47.134 47.133h-10.87c-3.531 11.05-7.986 21.784-13.323 32.097l7.704 7.704c18.666 18.646 18.151 48.528-.006 66.665l-22.713 22.712c-18.159 18.184-48.041 18.638-66.664-.006l-7.697-7.697c-10.313 5.336-21.048 9.792-32.097 13.323v10.871c0 25.987-21.144 47.131-47.134 47.131zm-106.349-102.83c14.327 8.473 29.747 14.874 45.831 19.025 6.624 1.709 11.252 7.683 11.252 14.524v22.148c0 9.447 7.687 17.133 17.134 17.133h32.133c9.447 0 17.134-7.686 17.134-17.133v-22.148c0-6.841 4.628-12.815 11.252-14.524 16.084-4.151 31.504-10.552 45.831-19.025 5.895-3.486 13.4-2.538 18.243 2.305l15.688 15.689c6.764 6.772 17.626 6.615 24.224.007l22.727-22.726c6.582-6.574 6.802-17.438.006-24.225l-15.695-15.695c-4.842-4.842-5.79-12.348-2.305-18.242 8.473-14.326 14.873-29.746 19.024-45.831 1.71-6.624 7.684-11.251 14.524-11.251h22.147c9.447 0 17.134-7.686 17.134-17.133v-32.134c0-9.447-7.687-17.133-17.134-17.133h-22.147c-6.841 0-12.814-4.628-14.524-11.251-4.151-16.085-10.552-31.505-19.024-45.831-3.485-5.894-2.537-13.4 2.305-18.242l15.689-15.689c6.782-6.774 6.605-17.634.006-24.225l-22.725-22.725c-6.587-6.596-17.451-6.789-24.225-.006l-15.694 15.695c-4.842 4.843-12.35 5.791-18.243 2.305-14.327-8.473-29.747-14.874-45.831-19.025-6.624-1.709-11.252-7.683-11.252-14.524v-22.15c0-9.447-7.687-17.133-17.134-17.133h-32.133c-9.447 0-17.134 7.686-17.134 17.133v22.148c0 6.841-4.628 12.815-11.252 14.524-16.084 4.151-31.504 10.552-45.831 19.025-5.896 3.485-13.401 2.537-18.243-2.305l-15.688-15.689c-6.764-6.772-17.627-6.615-24.224-.007l-22.727 22.726c-6.582 6.574-6.802 17.437-.006 24.225l15.695 15.695c4.842 4.842 5.79 12.348 2.305 18.242-8.473 14.326-14.873 29.746-19.024 45.831-1.71 6.624-7.684 11.251-14.524 11.251h-22.148c-9.447.001-17.134 7.687-17.134 17.134v32.134c0 9.447 7.687 17.133 17.134 17.133h22.147c6.841 0 12.814 4.628 14.524 11.251 4.151 16.085 10.552 31.505 19.024 45.831 3.485 5.894 2.537 13.4-2.305 18.242l-15.689 15.689c-6.782 6.774-6.605 17.634-.006 24.225l22.725 22.725c6.587 6.596 17.451 6.789 24.225.006l15.694-15.695c3.568-3.567 10.991-6.594 18.244-2.304z"/><path d="m256 367.4c-61.427 0-111.4-49.974-111.4-111.4s49.973-111.4 111.4-111.4 111.4 49.974 111.4 111.4-49.973 111.4-111.4 111.4zm0-192.8c-44.885 0-81.4 36.516-81.4 81.4s36.516 81.4 81.4 81.4 81.4-36.516 81.4-81.4-36.515-81.4-81.4-81.4z"/></symbol><symbol id="story-vertical" viewBox="0 0 10 61">
<path d="M0.996001 58.084L3.984 58.084L3.984 55.084L0.996001 55.084L0.996001 52.996L9 52.996L9 55.084L5.76 55.084L5.76 58.084L9 58.084L9 60.16L0.996001 60.16L0.996001 58.084ZM5.004 42.2403C6.188 42.2403 7.184 42.6603 7.992 43.5003C8.784 44.3323 9.18 45.3843 9.18 46.6563C9.18 47.9283 8.784 48.9803 7.992 49.8123C7.184 50.6523 6.188 51.0723 5.004 51.0723C4.452 51.0723 3.912 50.9683 3.384 50.7603C2.856 50.5443 2.396 50.2283 2.004 49.8123C1.212 48.9803 0.816001 47.9283 0.816001 46.6563C0.816001 45.3843 1.212 44.3323 2.004 43.5003C2.396 43.0843 2.856 42.7723 3.384 42.5643C3.912 42.3483 4.452 42.2403 5.004 42.2403ZM2.832 46.6563C2.832 47.3123 3.044 47.8523 3.468 48.2763C3.884 48.7003 4.408 48.9123 5.04 48.9123C5.624 48.9123 6.12 48.7003 6.528 48.2763C6.952 47.8363 7.164 47.2963 7.164 46.6563C7.164 46.0003 6.956 45.4643 6.54 45.0483C6.108 44.6163 5.596 44.4003 5.004 44.4003C4.396 44.4003 3.884 44.6163 3.468 45.0483C3.044 45.4963 2.832 46.0323 2.832 46.6563ZM9 36.9795L9 40.3155L0.996 40.3155L0.996 37.2195C0.996 36.4275 1.204 35.8435 1.62 35.4675C1.98 35.1395 2.48 34.9755 3.12 34.9755C3.472 34.9755 3.8 35.0515 4.104 35.2035C4.4 35.3635 4.608 35.5795 4.728 35.8515C4.776 35.4035 4.936 35.0395 5.208 34.7595C5.552 34.3995 6.04 34.2195 6.672 34.2195C7.328 34.2195 7.852 34.4155 8.244 34.8075C8.748 35.2955 9 36.0195 9 36.9795ZM2.592 38.2395L4.152 38.2395L4.152 37.8555C4.152 37.4875 4.068 37.2235 3.9 37.0635C3.772 36.9355 3.596 36.8715 3.372 36.8715C3.156 36.8715 2.976 36.9355 2.832 37.0635C2.672 37.2235 2.592 37.4875 2.592 37.8555L2.592 38.2395ZM5.7 38.2395L7.38 38.2395L7.38 37.7715C7.38 37.0995 7.272 36.6715 7.056 36.4875C6.928 36.3755 6.756 36.3195 6.54 36.3195C6.292 36.3195 6.1 36.3875 5.964 36.5235C5.788 36.6995 5.7 37.1275 5.7 37.8075L5.7 38.2395ZM5.004 23.8255C6.188 23.8255 7.184 24.2455 7.992 25.0855C8.784 25.9175 9.18 26.9695 9.18 28.2415C9.18 29.5135 8.784 30.5655 7.992 31.3975C7.184 32.2375 6.188 32.6575 5.004 32.6575C4.452 32.6575 3.912 32.5535 3.384 32.3455C2.856 32.1295 2.396 31.8135 2.004 31.3975C1.212 30.5655 0.816 29.5135 0.816 28.2415C0.816 26.9695 1.212 25.9175 2.004 25.0855C2.396 24.6695 2.856 24.3575 3.384 24.1495C3.912 23.9335 4.452 23.8255 5.004 23.8255ZM2.832 28.2415C2.832 28.8975 3.044 29.4375 3.468 29.8615C3.884 30.2855 4.408 30.4975 5.04 30.4975C5.624 30.4975 6.12 30.2855 6.528 29.8615C6.952 29.4215 7.164 28.8815 7.164 28.2415C7.164 27.5855 6.956 27.0495 6.54 26.6335C6.108 26.2015 5.596 25.9855 5.004 25.9855C4.396 25.9855 3.884 26.2015 3.468 26.6335C3.044 27.0815 2.832 27.6175 2.832 28.2415ZM6.324 16.1526L8.784 16.1526C9.048 16.8806 9.18 17.4806 9.18 17.9526C9.18 19.2006 8.78 20.2326 7.98 21.0486C7.596 21.4326 7.148 21.7326 6.636 21.9486C6.116 22.1566 5.592 22.2606 5.064 22.2606C4.512 22.2606 3.976 22.1526 3.456 21.9366C2.936 21.7126 2.488 21.4166 2.112 21.0486C1.28 20.2326 0.864 19.2246 0.864 18.0246C0.864 17.4406 0.999999 16.8166 1.272 16.1526L3.756 16.1526C3.172 16.6246 2.88 17.2286 2.88 17.9646C2.88 18.5326 3.056 19.0126 3.408 19.4046C3.84 19.8686 4.388 20.1006 5.052 20.1006C5.684 20.1006 6.204 19.8846 6.612 19.4526C6.98 19.0606 7.164 18.5646 7.164 17.9646C7.164 17.2686 6.884 16.6646 6.324 16.1526ZM2.76 9.20153L2.76 10.9055L9 10.9055L9 12.9815L2.76 12.9815L2.76 14.6855L0.995999 14.6855L0.995999 9.20153L2.76 9.20153ZM0.995999 7.6811L0.995999 5.59309L6.036 5.59309L0.995999 2.59309L0.995999 0.469095L9 0.469095L9 2.55709L3.96 2.55709L9 5.55709L9 7.68109L0.995999 7.6811Z" fill="white"/>
</symbol><symbol id="story" viewBox="0 0 61 10">
<path d="M2.916 0.995999L2.916 3.984H5.916L5.916 0.995999L8.004 0.995999L8.004 9H5.916L5.916 5.76H2.916L2.916 9H0.84L0.84 0.995999L2.916 0.995999ZM18.7597 5.004C18.7597 6.188 18.3397 7.184 17.4997 7.992C16.6677 8.784 15.6157 9.18 14.3437 9.18C13.0717 9.18 12.0197 8.784 11.1877 7.992C10.3477 7.184 9.92766 6.188 9.92766 5.004C9.92766 4.452 10.0317 3.912 10.2397 3.384C10.4557 2.856 10.7717 2.396 11.1877 2.004C12.0197 1.212 13.0717 0.816 14.3437 0.816C15.6157 0.816 16.6677 1.212 17.4997 2.004C17.9157 2.396 18.2277 2.856 18.4357 3.384C18.6517 3.912 18.7597 4.452 18.7597 5.004ZM14.3437 2.832C13.6877 2.832 13.1477 3.044 12.7237 3.468C12.2997 3.884 12.0877 4.408 12.0877 5.04C12.0877 5.624 12.2997 6.12 12.7237 6.528C13.1637 6.952 13.7037 7.164 14.3437 7.164C14.9997 7.164 15.5357 6.956 15.9517 6.54C16.3837 6.108 16.5997 5.596 16.5997 5.004C16.5997 4.396 16.3837 3.884 15.9517 3.468C15.5037 3.044 14.9677 2.832 14.3437 2.832ZM24.0205 9H20.6845V0.995999L23.7805 0.995999C24.5725 0.995999 25.1565 1.204 25.5325 1.62C25.8605 1.98 26.0245 2.48 26.0245 3.12C26.0245 3.472 25.9485 3.8 25.7965 4.104C25.6365 4.4 25.4205 4.608 25.1485 4.728C25.5965 4.776 25.9605 4.936 26.2405 5.208C26.6005 5.552 26.7805 6.04 26.7805 6.672C26.7805 7.328 26.5845 7.852 26.1925 8.244C25.7045 8.748 24.9805 9 24.0205 9ZM22.7605 2.592V4.152H23.1445C23.5125 4.152 23.7765 4.068 23.9365 3.9C24.0645 3.772 24.1285 3.596 24.1285 3.372C24.1285 3.156 24.0645 2.976 23.9365 2.832C23.7765 2.672 23.5125 2.592 23.1445 2.592H22.7605ZM22.7605 5.7V7.38H23.2285C23.9005 7.38 24.3285 7.272 24.5125 7.056C24.6245 6.928 24.6805 6.756 24.6805 6.54C24.6805 6.292 24.6125 6.1 24.4765 5.964C24.3005 5.788 23.8725 5.7 23.1925 5.7H22.7605ZM37.1745 5.004C37.1745 6.188 36.7545 7.184 35.9145 7.992C35.0825 8.784 34.0305 9.18 32.7585 9.18C31.4865 9.18 30.4345 8.784 29.6025 7.992C28.7625 7.184 28.3425 6.188 28.3425 5.004C28.3425 4.452 28.4465 3.912 28.6545 3.384C28.8705 2.856 29.1865 2.396 29.6025 2.004C30.4345 1.212 31.4865 0.816 32.7585 0.816C34.0305 0.816 35.0825 1.212 35.9145 2.004C36.3305 2.396 36.6425 2.856 36.8505 3.384C37.0665 3.912 37.1745 4.452 37.1745 5.004ZM32.7585 2.832C32.1025 2.832 31.5625 3.044 31.1385 3.468C30.7145 3.884 30.5025 4.408 30.5025 5.04C30.5025 5.624 30.7145 6.12 31.1385 6.528C31.5785 6.952 32.1185 7.164 32.7585 7.164C33.4145 7.164 33.9505 6.956 34.3665 6.54C34.7985 6.108 35.0145 5.596 35.0145 5.004C35.0145 4.396 34.7985 3.884 34.3665 3.468C33.9185 3.044 33.3825 2.832 32.7585 2.832ZM44.8474 6.324V8.784C44.1194 9.048 43.5194 9.18 43.0474 9.18C41.7994 9.18 40.7674 8.78 39.9514 7.98C39.5674 7.596 39.2674 7.148 39.0514 6.636C38.8434 6.116 38.7394 5.592 38.7394 5.064C38.7394 4.512 38.8474 3.976 39.0634 3.456C39.2874 2.936 39.5834 2.488 39.9514 2.112C40.7674 1.28 41.7754 0.864 42.9754 0.864C43.5594 0.864 44.1834 1 44.8474 1.272V3.756C44.3754 3.172 43.7714 2.88 43.0354 2.88C42.4674 2.88 41.9874 3.056 41.5954 3.408C41.1314 3.84 40.8994 4.388 40.8994 5.052C40.8994 5.684 41.1154 6.204 41.5474 6.612C41.9394 6.98 42.4354 7.164 43.0354 7.164C43.7314 7.164 44.3354 6.884 44.8474 6.324ZM51.7985 2.76L50.0945 2.76V9L48.0185 9V2.76H46.3145V0.995999L51.7985 0.995999V2.76ZM53.3189 0.995999L55.4069 0.995999V6.036L58.4069 0.995999L60.5309 0.995999V9H58.4429V3.96L55.4429 9H53.3189V0.995999Z" fill="white"/>
</symbol><symbol id="ukraine" viewBox="0 0 662 1092">
<path d="M324.2 6.89999C308.6 22.7 293.7 52.2 288.6 77C285.3 93.1 284.7 103 285.3 130.5C286.2 170 290.4 292.8 294.1 389.5C297 465.7 289.5 527.5 271.3 578C264.4 597 258.7 608.4 252.7 615.4C236.9 633.5 220.4 658.5 209.2 681.2C189.6 721.1 179.3 763 177.4 810.6L176.7 827L206.1 826.8L235.5 826.5L236.1 811.5C236.9 794.5 241.5 762.7 245.9 744.5C254.1 710.7 268.4 680.2 288.6 653C297 641.8 318.4 619.7 326.3 614.2L331.1 610.8L342.7 622.2C380.4 659.2 406.7 705.3 417.4 753.1C420.9 769 425 799.1 425.7 814.3L426.3 827L455.4 826.8L484.5 826.5L484.2 813.5C483.5 774.8 475.4 736.5 460.6 700.5C449 672.6 428.6 639.5 409.1 617.1C406.1 613.6 402.8 608.6 401.8 606.1C400.9 603.6 398.3 597.1 396.1 591.7C383.3 560.6 373.8 521.5 369.6 482C365.7 445.9 365.2 416.2 367.5 360.5C368.3 340.7 369.9 296.8 371 263C372.1 229.2 373.7 181.3 374.6 156.6C376.3 107.9 375.8 95.6 371.9 77.1C366.2 50.9 352.9 24.5 336.9 7.59999L330.3 0.699988L324.2 6.89999Z"/>
<path d="M0 505V899H91.3H182.7L185.5 909.7C194.3 943.8 211.2 978.3 233.2 1007.3C256.2 1037.6 289.4 1067.3 321.2 1086.3L330.8 1092L341 1086.2C374.5 1066.9 406.5 1038.3 430.8 1005.7C442.2 990.6 449 979.2 457.6 961.5C466.5 943.1 470.9 931.3 475.7 913L479.3 899H570.7H662V505V111H660C653.6 111 623.8 131.4 601.2 151.4C567.6 181 536.5 222.9 516.5 265.4C497.6 305.5 485.3 351.7 480.6 400.5C475.9 447.9 474.6 460.2 471 489.5C467.1 521.5 463.6 552 460.2 585.1L458.4 602.8L469.5 603.2C482 603.7 488.1 605.5 498.2 611.6C518.1 623.7 529 644.3 526 663.7C523.3 680.8 511.6 694.6 489.2 707C486.9 708.3 485.2 709.9 485.4 710.4C488.2 716.9 495.6 744.2 498.1 756.7C498.7 760.2 499.6 763 500 763C501.6 763 518.8 755.7 524 752.8C547.7 739.4 564.4 721 573.7 698C579.8 683.1 581.4 674.2 581.5 656C581.5 636.1 579.8 628.4 571.6 611.5C562.3 592.4 549.7 578.2 531.7 566.3C524.3 561.4 521.4 558.9 520.4 556.4C519.1 553.4 519.5 549.1 524 512.8C529.1 471.4 532.7 438.6 535.5 410.5C536.3 401.7 538 388.9 539.1 382C545.4 342.5 561.8 296.6 581.3 264C588.3 252.3 604.8 227 605.5 227C605.8 227 606 366.9 606 538V849H493.5H381V874V899H399.3C409.4 899 417.9 899.3 418.2 899.6C419.1 900.5 413.4 920.9 409 932.7C400.5 955.2 387.1 978.1 371.2 997C366.8 1002.2 362.3 1007.4 361.1 1008.4L359 1010.3L359.2 923.4L359.5 836.5L362.9 829.6C369.2 816.7 383.4 805.7 400.3 800.4C404.9 799 406 798.2 406 796.5C406 788.7 399.6 750.4 398 748.6C397 747.6 385.5 751.3 377.9 755.1C370.3 758.9 353.8 770.1 341.2 779.9L330.9 788L319.2 778.8C306 768.5 292.1 759.1 284 755C276.4 751.2 265 747.6 264 748.6C262.4 750.3 255.2 792.9 255.8 797.7C255.8 798 259.3 799.6 263.5 801.1C281 807.5 293 817.1 299.1 829.6L302.5 836.5L302.7 923L303 1009.5L296.4 1002.7C284.4 990.2 270.6 970.1 261.6 952.2C254 937 241.9 901.4 243.8 899.6C244.1 899.3 252.6 899 262.7 899H281V874V849H168.5H56V538C56 366.9 56.2 227 56.4 227C57 227 73.5 252.6 81 265C95.1 288.3 109.2 323.4 117 354.5C121.5 372.4 124.6 393 128 427C129.7 443.8 133.3 475.9 136.1 498.5C138.9 521 141.4 543.3 141.6 548C142.2 558.3 142.2 558.3 129 567.1C95.4 589.4 75.7 628.8 80 665.2C85.3 711.1 110.4 743.3 153.8 760C158 761.7 161.7 763 162 763C162.3 763 163.2 759.5 163.9 755.2C165.4 746.2 171 724.1 174 715.6C175.1 712.3 176 709.6 176 709.4C176 709.3 172.3 706.9 167.8 704.1C144.3 689.9 135.3 676.6 135.6 656.5C135.8 641.6 140.9 630.9 152.5 620.2C165.5 608.4 176 603.9 192.3 603.2C202 602.8 203 602.6 203 600.9C203 597 195.8 531.6 191.5 496C186 450.4 184.4 436.2 182.5 413.5C178.7 370.6 172.8 340.2 161.5 306.5C137 232.9 92 171.5 30.2 127.3C18 118.6 5.1 111 2.3 111H0V505Z"/>
</symbol><symbol id="verified" viewBox="0 0 512 512"><g><path d="m459.669 82.906-196-81.377c-4.91-2.038-10.429-2.039-15.338 0l-196 81.377c-7.465 3.1-12.331 10.388-12.331 18.471v98.925c0 136.213 82.329 258.74 208.442 310.215 4.844 1.977 10.271 1.977 15.116 0 126.111-51.474 208.442-174.001 208.442-310.215v-98.925c0-8.083-4.865-15.371-12.331-18.471zm-27.669 117.396c0 115.795-68 222.392-176 269.974-105.114-46.311-176-151.041-176-269.974v-85.573l176-73.074 176 73.074zm-198.106 67.414 85.964-85.963c7.81-7.81 20.473-7.811 28.284 0s7.81 20.474-.001 28.284l-100.105 100.105c-7.812 7.812-20.475 7.809-28.284 0l-55.894-55.894c-7.811-7.811-7.811-20.474 0-28.284s20.474-7.811 28.284 0z"/></g></symbol><symbol id="zoom" viewBox="0 0 512 512">
<g>
	<g>
		<path d="M184.866,0C83.07,0,0.258,82.811,0.258,184.607c0,101.789,82.812,184.607,184.607,184.607
			c101.789,0,184.607-82.818,184.607-184.607C369.473,82.811,286.655,0,184.866,0z M184.866,328.937
			c-79.583,0-144.329-64.747-144.329-144.329S105.283,40.278,184.866,40.278s144.329,64.747,144.329,144.329
			S264.448,328.937,184.866,328.937z"/>
	</g>
</g>
<g>
	<g>
		<path d="M505.841,428.725L399.044,321.922c-3.773-3.779-8.895-5.901-14.238-5.901c-5.344,0-10.459,2.121-14.238,5.901
			l-48.891,48.891c-7.868,7.861-7.868,20.609,0,28.477l106.804,106.81c3.773,3.779,8.895,5.901,14.238,5.901
			s10.459-2.128,14.232-5.907l48.891-48.891C513.708,449.341,513.708,436.593,505.841,428.725z M442.719,463.371l-78.321-78.32
			l20.414-20.407l78.32,78.32L442.719,463.371z"/>
	</g>
</g>
<g>
	<g>
		
			<rect x="310.404" y="288.52" transform="matrix(0.7071 -0.7071 0.7071 0.7071 -136.7381 330.4664)" width="40.271" height="83.542"/>
	</g>
</g>
<g>
</g>
<g>
</g>
<g>
</g>
<g>
</g>
<g>
</g>
<g>
</g>
<g>
</g>
<g>
</g>
<g>
</g>
<g>
</g>
<g>
</g>
<g>
</g>
<g>
</g>
<g>
</g>
<g>
</g>
</symbol></svg>