<svg xmlns="http://www.w3.org/2000/svg" xmlns:xlink="http://www.w3.org/1999/xlink"><symbol id="logo" viewBox="0 0 250 60">
<path d="M9.68652 7.14453H6.80566L5.83398 9H4.85254L8.71484 1.89062H9.52051L10.9268 9H10.0234L9.68652 7.14453ZM7.21094 6.37305H9.5498L8.95898 3.05762L7.21094 6.37305ZM17.9434 1.89062L17.123 6.7002C17.0124 7.43913 16.6934 8.02832 16.166 8.46777C15.6387 8.90397 15.0023 9.11556 14.2568 9.10254C13.7913 9.09277 13.3861 8.98861 13.041 8.79004C12.6992 8.58822 12.4469 8.30664 12.2842 7.94531C12.1214 7.58073 12.0677 7.16732 12.123 6.70508L12.9434 1.89062H13.8467L13.0312 6.70996C12.9759 7.20801 13.0605 7.60026 13.2852 7.88672C13.5098 8.16992 13.8499 8.31803 14.3057 8.33105C14.8005 8.35059 15.2171 8.21712 15.5557 7.93066C15.8975 7.64095 16.1123 7.23568 16.2002 6.71484L17.0205 1.89062H17.9434ZM24.0322 2.66211H21.8203L20.7217 9H19.8086L20.9072 2.66211H18.6953L18.832 1.89062H24.1689L24.0322 2.66211ZM26.4736 9.09766C26.0212 9.08789 25.6273 8.97884 25.292 8.77051C24.96 8.56217 24.6979 8.25618 24.5059 7.85254C24.3138 7.44564 24.208 6.98991 24.1885 6.48535C24.1689 6.09147 24.2129 5.60482 24.3203 5.02539C24.4277 4.44596 24.6133 3.9235 24.877 3.45801C25.1406 2.99251 25.4613 2.61979 25.8389 2.33984C26.3499 1.96224 26.9326 1.77995 27.5869 1.79297C28.2803 1.80599 28.8271 2.04688 29.2275 2.51562C29.6279 2.98112 29.8428 3.61263 29.8721 4.41016C29.8851 4.75195 29.8493 5.18652 29.7646 5.71387C29.6833 6.24121 29.5352 6.73112 29.3203 7.18359C29.1087 7.63607 28.8385 8.0153 28.5098 8.32129C27.9368 8.85514 27.2581 9.11393 26.4736 9.09766ZM28.9688 4.63477C28.9883 3.99349 28.876 3.49707 28.6318 3.14551C28.3877 2.79069 28.0247 2.60677 27.543 2.59375C27.1068 2.58073 26.7161 2.69792 26.3711 2.94531C26.0293 3.19271 25.7477 3.5638 25.5264 4.05859C25.3083 4.55013 25.1699 5.1735 25.1113 5.92871L25.0967 6.24609C25.0771 6.88411 25.1911 7.38379 25.4385 7.74512C25.6859 8.10645 26.0456 8.29362 26.5176 8.30664C27.1328 8.32292 27.6423 8.10156 28.0459 7.64258C28.4528 7.18034 28.723 6.53255 28.8564 5.69922C28.9215 5.28906 28.959 4.93424 28.9688 4.63477ZM34.0176 9H33.1045L34.3398 1.89062H35.2529L34.0176 9ZM38.1143 1.89062L39.3594 7.68164L42.6211 1.89062H43.8271L42.5918 9H41.6787L42.167 6.1875L42.748 3.32617L39.5254 9H38.8223L37.5527 3.21387L37.1133 6.28027L36.6396 9H35.7217L36.957 1.89062H38.1143ZM45.6387 6.2168L45.1553 9H44.2373L45.4727 1.89062L47.8457 1.89551C48.5781 1.89551 49.1429 2.09082 49.54 2.48145C49.9372 2.86882 50.1081 3.38477 50.0527 4.0293C49.9941 4.70964 49.7223 5.24512 49.2373 5.63574C48.7555 6.02637 48.1191 6.22168 47.3281 6.22168L45.6387 6.2168ZM45.7705 5.4502L47.3525 5.45508C47.8506 5.45508 48.2591 5.32975 48.5781 5.0791C48.8971 4.82845 49.0843 4.48014 49.1396 4.03418C49.1917 3.63379 49.1087 3.3099 48.8906 3.0625C48.6725 2.81185 48.3551 2.68001 47.9385 2.66699L46.2539 2.66211L45.7705 5.4502ZM53.0166 9.09766C52.5641 9.08789 52.1702 8.97884 51.835 8.77051C51.5029 8.56217 51.2409 8.25618 51.0488 7.85254C50.8568 7.44564 50.751 6.98991 50.7314 6.48535C50.7119 6.09147 50.7559 5.60482 50.8633 5.02539C50.9707 4.44596 51.1562 3.9235 51.4199 3.45801C51.6836 2.99251 52.0042 2.61979 52.3818 2.33984C52.8929 1.96224 53.4756 1.77995 54.1299 1.79297C54.8232 1.80599 55.3701 2.04688 55.7705 2.51562C56.1709 2.98112 56.3857 3.61263 56.415 4.41016C56.4281 4.75195 56.3923 5.18652 56.3076 5.71387C56.2262 6.24121 56.0781 6.73112 55.8633 7.18359C55.6517 7.63607 55.3815 8.0153 55.0527 8.32129C54.4798 8.85514 53.8011 9.11393 53.0166 9.09766ZM55.5117 4.63477C55.5312 3.99349 55.4189 3.49707 55.1748 3.14551C54.9307 2.79069 54.5677 2.60677 54.0859 2.59375C53.6497 2.58073 53.2591 2.69792 52.9141 2.94531C52.5723 3.19271 52.2907 3.5638 52.0693 4.05859C51.8512 4.55013 51.7129 5.1735 51.6543 5.92871L51.6396 6.24609C51.6201 6.88411 51.734 7.38379 51.9814 7.74512C52.2288 8.10645 52.5885 8.29362 53.0605 8.30664C53.6758 8.32292 54.1852 8.10156 54.5889 7.64258C54.9958 7.18034 55.266 6.53255 55.3994 5.69922C55.4645 5.28906 55.502 4.93424 55.5117 4.63477ZM60.1846 6.12402H58.5439L58.0459 9H57.123L58.3584 1.89062L60.4971 1.89551C61.2425 1.89876 61.8105 2.08757 62.2012 2.46191C62.5918 2.83626 62.7562 3.3457 62.6943 3.99023C62.6585 4.4362 62.4958 4.82845 62.2061 5.16699C61.9196 5.50553 61.5371 5.76107 61.0586 5.93359L62.1621 8.93652L62.1572 9H61.1807L60.1846 6.12402ZM58.6758 5.35742L60.0234 5.3623C60.4922 5.3623 60.8877 5.23861 61.21 4.99121C61.5322 4.74056 61.721 4.4069 61.7764 3.99023C61.8252 3.58333 61.7438 3.26432 61.5322 3.0332C61.3206 2.80208 60.9984 2.68001 60.5654 2.66699L59.1445 2.66211L58.6758 5.35742ZM68.6318 2.66211H66.4199L65.3213 9H64.4082L65.5068 2.66211H63.2949L63.4316 1.89062H68.7686L68.6318 2.66211ZM76.2783 6.73438C76.1416 7.47005 75.8079 8.05273 75.2773 8.48242C74.75 8.91211 74.1169 9.11719 73.3779 9.09766C72.9385 9.08789 72.5544 8.98047 72.2256 8.77539C71.8968 8.56706 71.6413 8.26921 71.459 7.88184C71.2767 7.49121 71.1758 7.0599 71.1562 6.58789C71.1432 6.32096 71.1546 6.06055 71.1904 5.80664L71.2734 5.2207C71.4264 4.15299 71.8008 3.31152 72.3965 2.69629C72.9954 2.0778 73.723 1.77669 74.5791 1.79297C75.2464 1.80599 75.7754 2.02246 76.166 2.44238C76.5566 2.85905 76.7633 3.43848 76.7861 4.18066H75.873C75.8307 3.18457 75.4401 2.64746 74.7012 2.56934L74.54 2.55957C73.9248 2.54329 73.4105 2.77279 72.9971 3.24805C72.5869 3.72005 72.3216 4.36621 72.2012 5.18652L72.0938 5.92383L72.0645 6.35352C72.0449 6.95247 72.1507 7.42936 72.3818 7.78418C72.6162 8.13574 72.9629 8.31803 73.4219 8.33105C73.9167 8.34733 74.3252 8.22852 74.6475 7.97461C74.973 7.7207 75.2204 7.31217 75.3896 6.74902L76.2783 6.73438ZM79.833 9.09766C79.3805 9.08789 78.9867 8.97884 78.6514 8.77051C78.3193 8.56217 78.0573 8.25618 77.8652 7.85254C77.6732 7.44564 77.5674 6.98991 77.5479 6.48535C77.5283 6.09147 77.5723 5.60482 77.6797 5.02539C77.7871 4.44596 77.9727 3.9235 78.2363 3.45801C78.5 2.99251 78.8206 2.61979 79.1982 2.33984C79.7093 1.96224 80.292 1.77995 80.9463 1.79297C81.6396 1.80599 82.1865 2.04688 82.5869 2.51562C82.9873 2.98112 83.2021 3.61263 83.2314 4.41016C83.2445 4.75195 83.2087 5.18652 83.124 5.71387C83.0426 6.24121 82.8945 6.73112 82.6797 7.18359C82.4681 7.63607 82.1979 8.0153 81.8691 8.32129C81.2962 8.85514 80.6175 9.11393 79.833 9.09766ZM82.3281 4.63477C82.3477 3.99349 82.2354 3.49707 81.9912 3.14551C81.7471 2.79069 81.3841 2.60677 80.9023 2.59375C80.4661 2.58073 80.0755 2.69792 79.7305 2.94531C79.3887 3.19271 79.1071 3.5638 78.8857 4.05859C78.6676 4.55013 78.5293 5.1735 78.4707 5.92871L78.4561 6.24609C78.4365 6.88411 78.5505 7.38379 78.7979 7.74512C79.0452 8.10645 79.4049 8.29362 79.877 8.30664C80.4922 8.32292 81.0016 8.10156 81.4053 7.64258C81.8122 7.18034 82.0824 6.53255 82.2158 5.69922C82.2809 5.28906 82.3184 4.93424 82.3281 4.63477ZM86.3369 1.89062L87.582 7.68164L90.8438 1.89062H92.0498L90.8145 9H89.9014L90.3896 6.1875L90.9707 3.32617L87.748 9H87.0449L85.7754 3.21387L85.3359 6.28027L84.8623 9H83.9443L85.1797 1.89062H86.3369ZM93.8613 6.2168L93.3779 9H92.46L93.6953 1.89062L96.0684 1.89551C96.8008 1.89551 97.3656 2.09082 97.7627 2.48145C98.1598 2.86882 98.3307 3.38477 98.2754 4.0293C98.2168 4.70964 97.945 5.24512 97.46 5.63574C96.9782 6.02637 96.3418 6.22168 95.5508 6.22168L93.8613 6.2168ZM93.9932 5.4502L95.5752 5.45508C96.0732 5.45508 96.4818 5.32975 96.8008 5.0791C97.1198 4.82845 97.307 4.48014 97.3623 4.03418C97.4144 3.63379 97.3314 3.3099 97.1133 3.0625C96.8952 2.81185 96.5778 2.68001 96.1611 2.66699L94.4766 2.66211L93.9932 5.4502ZM102.108 7.14453H99.2275L98.2559 9H97.2744L101.137 1.89062H101.942L103.349 9H102.445L102.108 7.14453ZM99.6328 6.37305H101.972L101.381 3.05762L99.6328 6.37305ZM109.643 9H108.754L106.215 3.48242L105.258 9H104.335L105.57 1.89062H106.459L109.003 7.43262L109.965 1.89062H110.878L109.643 9ZM113.856 5.45508L116.273 1.89062H117.367L114.179 6.39746L113.725 9H112.812L113.28 6.29492L111.693 1.89062H112.689L113.856 5.45508Z" fill="white"/>
<path d="M8.34375 46.3516H22.8281L21.8438 52H0.492188L6.42188 17.875H13.2891L8.34375 46.3516ZM25.9453 52L31.875 17.875L41.6719 17.8984C43.9688 17.9453 46.0312 18.4688 47.8594 19.4688C49.7031 20.4531 51.1953 21.875 52.3359 23.7344C53.4766 25.5938 54.1641 27.6875 54.3984 30.0156C54.5234 31.375 54.5078 32.7656 54.3516 34.1875L54.1875 35.4297C53.5 40.4297 51.5312 44.4453 48.2812 47.4766C45.0469 50.4922 41.1172 52 36.4922 52H25.9453ZM37.7578 23.5703L33.7969 46.3516L36.6562 46.375C39.8125 46.375 42.3438 45.2188 44.25 42.9062C46.1719 40.5938 47.2734 37.1016 47.5547 32.4297L47.6016 31.6797C47.6484 29.1016 47.1562 27.125 46.125 25.75C45.0938 24.375 43.5547 23.6562 41.5078 23.5938L37.7578 23.5703Z" fill="#59B32B"/>
<path d="M68.2031 17.875L76.9688 42.625L85.6875 17.875H94.9219V52H87.8672V42.6719L88.5703 26.5703L79.3594 52H74.5312L65.3438 26.5938L66.0469 42.6719V52H59.0156V17.875H68.2031ZM129.094 35.7109C129.094 39.0703 128.5 42.0156 127.312 44.5469C126.125 47.0781 124.422 49.0312 122.203 50.4062C120 51.7812 117.469 52.4688 114.609 52.4688C111.781 52.4688 109.258 51.7891 107.039 50.4297C104.82 49.0703 103.102 47.1328 101.883 44.6172C100.664 42.0859 100.047 39.1797 100.031 35.8984V34.2109C100.031 30.8516 100.633 27.8984 101.836 25.3516C103.055 22.7891 104.766 20.8281 106.969 19.4688C109.188 18.0938 111.719 17.4062 114.562 17.4062C117.406 17.4062 119.93 18.0938 122.133 19.4688C124.352 20.8281 126.062 22.7891 127.266 25.3516C128.484 27.8984 129.094 30.8438 129.094 34.1875V35.7109ZM121.969 34.1641C121.969 30.5859 121.328 27.8672 120.047 26.0078C118.766 24.1484 116.938 23.2188 114.562 23.2188C112.203 23.2188 110.383 24.1406 109.102 25.9844C107.82 27.8125 107.172 30.5 107.156 34.0469V35.7109C107.156 39.1953 107.797 41.8984 109.078 43.8203C110.359 45.7422 112.203 46.7031 114.609 46.7031C116.969 46.7031 118.781 45.7812 120.047 43.9375C121.312 42.0781 121.953 39.375 121.969 35.8281V34.1641ZM157.875 23.5703H147.422V52H140.391V23.5703H130.078V17.875H157.875V23.5703ZM189.281 35.7109C189.281 39.0703 188.688 42.0156 187.5 44.5469C186.312 47.0781 184.609 49.0312 182.391 50.4062C180.188 51.7812 177.656 52.4688 174.797 52.4688C171.969 52.4688 169.445 51.7891 167.227 50.4297C165.008 49.0703 163.289 47.1328 162.07 44.6172C160.852 42.0859 160.234 39.1797 160.219 35.8984V34.2109C160.219 30.8516 160.82 27.8984 162.023 25.3516C163.242 22.7891 164.953 20.8281 167.156 19.4688C169.375 18.0938 171.906 17.4062 174.75 17.4062C177.594 17.4062 180.117 18.0938 182.32 19.4688C184.539 20.8281 186.25 22.7891 187.453 25.3516C188.672 27.8984 189.281 30.8438 189.281 34.1875V35.7109ZM182.156 34.1641C182.156 30.5859 181.516 27.8672 180.234 26.0078C178.953 24.1484 177.125 23.2188 174.75 23.2188C172.391 23.2188 170.57 24.1406 169.289 25.9844C168.008 27.8125 167.359 30.5 167.344 34.0469V35.7109C167.344 39.1953 167.984 41.8984 169.266 43.8203C170.547 45.7422 172.391 46.7031 174.797 46.7031C177.156 46.7031 178.969 45.7812 180.234 43.9375C181.5 42.0781 182.141 39.375 182.156 35.8281V34.1641ZM207.023 39.5078H201.422V52H194.391V17.875H207.07C211.102 17.875 214.211 18.7734 216.398 20.5703C218.586 22.3672 219.68 24.9062 219.68 28.1875C219.68 30.5156 219.172 32.4609 218.156 34.0234C217.156 35.5703 215.633 36.8047 213.586 37.7266L220.969 51.6719V52H213.422L207.023 39.5078ZM201.422 33.8125H207.094C208.859 33.8125 210.227 33.3672 211.195 32.4766C212.164 31.5703 212.648 30.3281 212.648 28.75C212.648 27.1406 212.188 25.875 211.266 24.9531C210.359 24.0312 208.961 23.5703 207.07 23.5703H201.422V33.8125ZM242.742 43.0469C242.742 41.7188 242.273 40.7031 241.336 40C240.398 39.2812 238.711 38.5312 236.273 37.75C233.836 36.9531 231.906 36.1719 230.484 35.4062C226.609 33.3125 224.672 30.4922 224.672 26.9453C224.672 25.1016 225.188 23.4609 226.219 22.0234C227.266 20.5703 228.758 19.4375 230.695 18.625C232.648 17.8125 234.836 17.4062 237.258 17.4062C239.695 17.4062 241.867 17.8516 243.773 18.7422C245.68 19.6172 247.156 20.8594 248.203 22.4688C249.266 24.0781 249.797 25.9062 249.797 27.9531H242.766C242.766 26.3906 242.273 25.1797 241.289 24.3203C240.305 23.4453 238.922 23.0078 237.141 23.0078C235.422 23.0078 234.086 23.375 233.133 24.1094C232.18 24.8281 231.703 25.7812 231.703 26.9688C231.703 28.0781 232.258 29.0078 233.367 29.7578C234.492 30.5078 236.141 31.2109 238.312 31.8672C242.312 33.0703 245.227 34.5625 247.055 36.3438C248.883 38.125 249.797 40.3438 249.797 43C249.797 45.9531 248.68 48.2734 246.445 49.9609C244.211 51.6328 241.203 52.4688 237.422 52.4688C234.797 52.4688 232.406 51.9922 230.25 51.0391C228.094 50.0703 226.445 48.75 225.305 47.0781C224.18 45.4062 223.617 43.4688 223.617 41.2656H230.672C230.672 45.0312 232.922 46.9141 237.422 46.9141C239.094 46.9141 240.398 46.5781 241.336 45.9062C242.273 45.2188 242.742 44.2656 242.742 43.0469Z" fill="white"/>
</symbol><symbol id="map-mark" viewBox="0 0 512 512">
<g>
	<g>
		<path d="M256,0C153.755,0,70.573,83.182,70.573,185.426c0,126.888,165.939,313.167,173.004,321.035
			c6.636,7.391,18.222,7.378,24.846,0c7.065-7.868,173.004-194.147,173.004-321.035C441.425,83.182,358.244,0,256,0z M256,278.719
			c-51.442,0-93.292-41.851-93.292-93.293S204.559,92.134,256,92.134s93.291,41.851,93.291,93.293S307.441,278.719,256,278.719z"/>
	</g>
</g>
<g>
</g>
<g>
</g>
<g>
</g>
<g>
</g>
<g>
</g>
<g>
</g>
<g>
</g>
<g>
</g>
<g>
</g>
<g>
</g>
<g>
</g>
<g>
</g>
<g>
</g>
<g>
</g>
<g>
</g>
</symbol><symbol id="phone" viewBox="0 0 108.27 108.27">
<g>
	<path d="M51.954,66.588c-9.284-7.634-15.483-17.054-18.742-22.414l-2.431-4.583c0.85-0.912,7.332-7.853,10.141-11.619
		c3.53-4.729-1.588-9-1.588-9S24.933,4.569,21.651,1.712c-3.282-2.861-7.06-1.272-7.06-1.272C7.693,4.897,0.542,8.772,0.113,27.408
		C0.097,44.856,13.342,62.852,27.665,76.784c14.346,15.734,34.043,31.504,53.086,31.486c18.634-0.425,22.508-7.575,26.965-14.473
		c0,0,1.59-3.775-1.268-7.06c-2.86-3.284-17.265-17.688-17.265-17.688s-4.268-5.119-8.998-1.586
		c-3.525,2.635-9.855,8.496-11.38,9.917C68.808,77.385,58.219,71.74,51.954,66.588z"/>
</g>
<g>
</g>
<g>
</g>
<g>
</g>
<g>
</g>
<g>
</g>
<g>
</g>
<g>
</g>
<g>
</g>
<g>
</g>
<g>
</g>
<g>
</g>
<g>
</g>
<g>
</g>
<g>
</g>
<g>
</g>
</symbol></svg>