<?xml version="1.0" encoding="iso-8859-1"?>
<!-- Generator: Adobe Illustrator 19.0.0, SVG Export Plug-In . SVG Version: 6.00 Build 0)  -->
<svg version="1.1" id="Capa_1" xmlns="http://www.w3.org/2000/svg" xmlns:xlink="http://www.w3.org/1999/xlink" x="0px" y="0px"
	 viewBox="0 0 515.088 515.088" style="enable-background:new 0 0 515.088 515.088;" xml:space="preserve">
<g>
	<g>
		<g>
			<polygon points="109.088,427.416 86.128,404.456 106.56,347.304 86.848,299.736 32,273.784 32,241.304 86.848,215.352 
				106.56,167.784 86.128,110.632 109.088,87.672 166.272,108.104 213.776,88.44 239.776,33.544 272.224,33.544 298.224,88.44 
				345.728,108.104 402.912,87.672 425.872,110.632 407.52,161.96 437.664,172.744 462.816,102.328 411.232,50.728 346.576,73.832 
				321.856,63.592 292.48,1.544 219.52,1.544 190.144,63.592 165.424,73.832 100.768,50.728 49.184,102.328 72.272,166.936 
				62,191.704 0,221.064 0,294.024 62,323.384 72.272,348.152 49.184,412.76 100.768,464.36 171.2,439.208 160.432,409.08 			"/>
			<path d="M484.8,343.944l30.288-41.36L481.6,244.552l-50.976,5.552l-16.688-9.6l-20.688-46.96h-66.944L305.6,240.472l-16.704,9.6
				l-50.96-5.552l-33.456,58.016l30.272,41.408v19.2l-30.272,41.408l33.472,57.984l50.96-5.552l16.704,9.6l20.688,46.96h66.944
				l20.688-46.928l16.688-9.6l50.976,5.552l33.472-57.984l-30.272-41.44V343.944z M476.944,406.664l-12.608,21.856l-40.64-4.432
				L388.8,444.136l-16.416,37.408H347.2l-16.496-37.408l-34.816-20.096l-40.624,4.432l-12.608-21.856l24.128-32.96v-40.224
				l-24.128-32.96l12.608-21.856l40.624,4.432l34.816-20.096l16.496-37.408h25.216l16.48,37.408l34.816,20.096l40.64-4.432
				l12.608,21.856l-24.16,32.96v40.224L476.944,406.664z"/>
			<path d="M359.776,289.544c-35.346,0-64,28.654-64,64c0,35.346,28.654,64,64,64c35.346,0,64-28.654,64-64
				C423.776,318.198,395.122,289.544,359.776,289.544z M359.776,385.544c-17.673,0-32-14.327-32-32c0-17.673,14.327-32,32-32
				c17.673,0,32,14.327,32,32C391.776,371.217,377.449,385.544,359.776,385.544z"/>
			<path d="M160,257.544c-0.058-29.117,13.152-56.674,35.888-74.864l-20.064-24.928c-55.105,44.282-63.879,124.85-19.597,179.955
				c7.64,9.507,16.598,17.873,26.605,24.845l18.32-26.24C175.391,318.355,160.026,288.946,160,257.544z"/>
			<path d="M273.2,163.144c8.305,1.487,16.375,4.069,24,7.68l13.696-28.896c-10.167-4.823-20.927-8.282-32-10.288L273.2,163.144z"/>
			<path d="M219.376,168.76c8.453-3.493,17.366-5.746,26.464-6.688l-3.296-31.84c-12.154,1.271-24.063,4.283-35.36,8.944
				L219.376,168.76z"/>
		</g>
	</g>
</g>
<g>
</g>
<g>
</g>
<g>
</g>
<g>
</g>
<g>
</g>
<g>
</g>
<g>
</g>
<g>
</g>
<g>
</g>
<g>
</g>
<g>
</g>
<g>
</g>
<g>
</g>
<g>
</g>
<g>
</g>
</svg>
