<svg  enable-background="new 0 0 512 512" height="40" viewBox="0 0 512 512" width="40" xmlns="http://www.w3.org/2000/svg"><g><path d="m512 166c0-24.813-20.187-45-45-45v30c8.271 0 15 6.729 15 15s-6.729 15-15 15c-18.383 0-65.162 0-83.722 0 4.994-14.082 7.722-29.228 7.722-45 0-74.991-60.561-136-135-136s-135 61.009-135 136c0 15.772 2.728 30.918 7.722 45-17.079 0-66.643 0-83.722 0-8.271 0-15-6.729-15-15s6.729-15 15-15v-30c-24.813 0-45 20.187-45 45s20.187 45 45 45h21.658l-66.658 132.438v33.562c0 24.813 20.187 45 45 45h91c24.813 0 45-20.187 45-45v-33.52l-65.801-132.48h28.607c21.615 32.229 56.736 54.669 97.195 59.162l-.001 151.838h-15c-36.219 0-66.522 25.808-73.491 60h-31.509v30h270v-30h-31.509c-6.968-34.192-37.271-60-73.491-60h-15.01v-151.838c40.459-4.494 75.589-26.933 97.204-59.162h28.607l-65.801 132.48v33.52c0 24.813 20.187 45 45 45h91c24.813 0 45-20.187 45-45v-33.562l-66.658-132.438h21.658c24.813 0 45-20.187 45-45zm-421.089 63.541 50.89 102.459h-102.459zm45.089 162.459h-91c-8.271 0-15-6.729-15-15v-15h121v15c0 8.271-6.729 15-15 15zm192.42 90h-144.84c6.192-17.458 22.865-30 42.42-30h60c19.555 0 36.228 12.542 42.42 30zm-177.42-346c0-53.308 39.184-97.543 90-104.914v32.494c-17.459 6.192-30 22.865-30 42.42 0 24.813 20.187 45 45 45 8.271 0 15 6.729 15 15s-6.729 15-15 15-15-6.729-15-15h-30c0 19.555 12.541 36.228 30 42.42v31.504c-50.816-7.301-90-51.119-90-103.924zm120 103.924v-31.504c17.459-6.192 30-22.865 30-42.42 0-24.813-20.187-45-45-45-8.271 0-15-6.729-15-15s6.729-15 15-15 15 6.729 15 15h30c0-19.555-12.541-36.228-30-42.42v-32.494c50.816 7.371 90 51.606 90 104.914 0 52.805-39.184 96.623-90 103.924zm150.089-10.383 51.568 102.459h-102.458zm45.911 162.459h-91c-8.271 0-15-6.729-15-15v-15h121v15c0 8.271-6.729 15-15 15z"/></g></svg>