<svg width="35" height="21" viewBox="0 0 35 21" fill="none" xmlns="http://www.w3.org/2000/svg">
<path d="M2.916 0.995999L2.916 4.296L5.46 0.995999L8.028 0.995999L4.848 4.788L8.316 9H5.628L2.916 5.532L2.916 9H0.84L0.84 0.995999L2.916 0.995999ZM17.6464 5.004C17.6464 6.188 17.2264 7.184 16.3864 7.992C15.5544 8.784 14.5024 9.18 13.2304 9.18C11.9584 9.18 10.9064 8.784 10.0744 7.992C9.23438 7.184 8.81438 6.188 8.81438 5.004C8.81438 4.452 8.91838 3.912 9.12638 3.384C9.34238 2.856 9.65838 2.396 10.0744 2.004C10.9064 1.212 11.9584 0.816 13.2304 0.816C14.5024 0.816 15.5544 1.212 16.3864 2.004C16.8024 2.396 17.1144 2.856 17.3224 3.384C17.5384 3.912 17.6464 4.452 17.6464 5.004ZM13.2304 2.832C12.5744 2.832 12.0344 3.044 11.6104 3.468C11.1864 3.884 10.9744 4.408 10.9744 5.04C10.9744 5.624 11.1864 6.12 11.6104 6.528C12.0504 6.952 12.5904 7.164 13.2304 7.164C13.8864 7.164 14.4224 6.956 14.8384 6.54C15.2704 6.108 15.4864 5.596 15.4864 5.004C15.4864 4.396 15.2704 3.884 14.8384 3.468C14.3904 3.044 13.8544 2.832 13.2304 2.832ZM21.6473 0.995999V3.984H24.6473V0.995999L26.7353 0.995999V9H24.6473V5.76H21.6473V9H19.5713V0.995999L21.6473 0.995999ZM33.7469 2.76H32.0429V9H29.9669V2.76L28.2629 2.76V0.995999L33.7469 0.995999V2.76ZM6.216 21L5.724 19.656H2.82L2.28 21H0.0840005L3.156 12.996H5.424L8.436 21H6.216ZM3.396 18.072H5.172L4.272 15.48L3.396 18.072ZM12.0355 12.996L12.0355 16.296L14.5795 12.996L17.1475 12.996L13.9675 16.788L17.4355 21H14.7475L12.0355 17.532V21L9.95953 21L9.95953 12.996H12.0355ZM23.6196 14.76H21.9156V21H19.8396V14.76H18.1356V12.996H23.6196V14.76ZM31.92 21V12.996H34.008V21L31.92 21ZM25.14 21V12.996H27.228V16.116H28.236C29.324 16.116 30.12 16.364 30.624 16.86C31.048 17.276 31.26 17.84 31.26 18.552C31.26 19.264 31.06 19.824 30.66 20.232C30.156 20.744 29.308 21 28.116 21H25.14ZM27.228 19.392H28.032C28.472 19.392 28.772 19.312 28.932 19.152C29.076 19.008 29.148 18.808 29.148 18.552C29.148 18.296 29.072 18.1 28.92 17.964C28.752 17.804 28.456 17.724 28.032 17.724H27.228V19.392Z" fill="white"/>
</svg>
