<svg width="10" height="65" viewBox="0 0 10 65" fill="none" xmlns="http://www.w3.org/2000/svg">
<path d="M2.76 59.432L2.76 61.136L9 61.136L9 63.212L2.76 63.212L2.76 64.916L0.996001 64.916L0.996001 59.432L2.76 59.432ZM9 52.8988L7.656 53.3908L7.656 56.2948L9 56.8348L9 59.0308L0.996001 55.9588L0.996001 53.6908L9 50.6788L9 52.8988ZM6.072 55.7188L6.072 53.9428L3.48 54.8428L6.072 55.7188ZM9 47.4513L9 49.5153L0.996001 48.1593L0.996 46.1073L5.268 44.4873L0.996 42.7713L0.996 40.6953L9 39.4953L9 41.5713L4.392 42.1593L9 44.0913L9 44.9193L4.392 46.7673L9 47.4513ZM5.004 29.1028C6.188 29.1028 7.184 29.5228 7.992 30.3628C8.784 31.1948 9.18 32.2468 9.18 33.5188C9.18 34.7908 8.784 35.8428 7.992 36.6748C7.184 37.5148 6.188 37.9348 5.004 37.9348C4.452 37.9348 3.912 37.8308 3.384 37.6228C2.856 37.4068 2.396 37.0908 2.004 36.6748C1.212 35.8428 0.816 34.7908 0.816 33.5188C0.816 32.2468 1.212 31.1948 2.004 30.3628C2.396 29.9468 2.856 29.6348 3.384 29.4268C3.912 29.2108 4.452 29.1028 5.004 29.1028ZM2.832 33.5188C2.832 34.1748 3.044 34.7148 3.468 35.1388C3.884 35.5628 4.408 35.7748 5.04 35.7748C5.624 35.7748 6.12 35.5628 6.528 35.1388C6.952 34.6988 7.164 34.1588 7.164 33.5188C7.164 32.8628 6.956 32.3268 6.54 31.9108C6.108 31.4788 5.596 31.2628 5.004 31.2628C4.396 31.2628 3.884 31.4788 3.468 31.9108C3.044 32.3588 2.832 32.8948 2.832 33.5188ZM9 23.687L5.484 23.687L9 25.847L9 28.463L4.92 25.547L0.996 28.223L0.996 25.823L4.476 23.687L0.995999 23.687L0.995999 21.623L4.476 21.623L0.995999 19.487L0.995999 17.087L4.92 19.763L9 16.847L9 19.463L5.484 21.623L9 21.623L9 23.687ZM0.995999 13.3223L3.984 13.3223L3.984 10.3223L0.995999 10.3223L0.995999 8.23428L9 8.23428L9 10.3223L5.76 10.3223L5.76 13.3223L9 13.3223L9 15.3983L0.995999 15.3983L0.995999 13.3223ZM9 6.62263L5.988 4.39063C5.908 4.85463 5.7 5.25063 5.364 5.57863C4.94 5.99463 4.38 6.20263 3.684 6.20263C2.892 6.20263 2.264 5.98263 1.8 5.54263C1.264 5.03863 0.995999 4.29063 0.995999 3.29863L0.995998 0.214626L9 0.214626L9 2.30263L6.276 2.30263L6.276 2.50663L9 4.22263L9 6.62263ZM4.668 2.30263L2.748 2.30263L2.748 2.89063C2.748 3.29063 2.84 3.59063 3.024 3.79063C3.192 3.97463 3.42 4.06663 3.708 4.06663C3.996 4.06663 4.224 3.98263 4.392 3.81463C4.576 3.62263 4.668 3.31463 4.668 2.89063L4.668 2.30263Z" fill="white"/>
</svg>
