<svg width="11" height="69" viewBox="0 0 11 69" fill="none" xmlns="http://www.w3.org/2000/svg">
<path d="M0.496001 66.832L0.496001 60.784L6.892 60.784L6.892 59.824L10.3 59.824L10.3 61.696L8.5 61.696L8.5 66.568L10.3 66.568L10.3 68.44L6.892 68.44C6.836 68.088 6.676 67.784 6.412 67.528C6.124 67.248 5.776 67.064 5.368 66.976C4.952 66.88 4.424 66.832 3.784 66.832L0.496001 66.832ZM2.104 64.816L3.988 64.816C4.652 64.816 5.212 64.88 5.668 65.008C6.148 65.144 6.556 65.376 6.892 65.704L6.892 62.872L2.104 62.872L2.104 64.816ZM4.504 49.67C5.688 49.67 6.684 50.09 7.492 50.93C8.284 51.762 8.68 52.814 8.68 54.086C8.68 55.358 8.284 56.41 7.492 57.242C6.684 58.082 5.688 58.502 4.504 58.502C3.952 58.502 3.412 58.398 2.884 58.19C2.356 57.974 1.896 57.658 1.504 57.242C0.712001 56.41 0.316001 55.358 0.316001 54.086C0.316001 52.814 0.712001 51.762 1.504 50.93C1.896 50.514 2.356 50.202 2.884 49.994C3.412 49.778 3.952 49.67 4.504 49.67ZM2.332 54.086C2.332 54.742 2.544 55.282 2.968 55.706C3.384 56.13 3.908 56.342 4.54 56.342C5.124 56.342 5.62 56.13 6.028 55.706C6.452 55.266 6.664 54.726 6.664 54.086C6.664 53.43 6.456 52.894 6.04 52.478C5.608 52.046 5.096 51.83 4.504 51.83C3.896 51.83 3.384 52.046 2.968 52.478C2.544 52.926 2.332 53.462 2.332 54.086ZM5.824 41.9972L8.284 41.9972C8.548 42.7252 8.68 43.3252 8.68 43.7972C8.68 45.0452 8.28 46.0772 7.48 46.8932C7.096 47.2772 6.648 47.5772 6.136 47.7932C5.616 48.0012 5.092 48.1052 4.564 48.1052C4.012 48.1052 3.476 47.9972 2.956 47.7812C2.436 47.5572 1.988 47.2612 1.612 46.8932C0.780001 46.0772 0.364 45.0692 0.364 43.8692C0.364 43.2852 0.5 42.6612 0.772 41.9972L3.256 41.9972C2.672 42.4692 2.38 43.0732 2.38 43.8092C2.38 44.3772 2.556 44.8572 2.908 45.2492C3.34 45.7132 3.888 45.9452 4.552 45.9452C5.184 45.9452 5.704 45.7292 6.112 45.2972C6.48 44.9052 6.664 44.4092 6.664 43.8092C6.664 43.1132 6.384 42.5092 5.824 41.9972ZM2.26 35.0461L2.26 36.7501L8.5 36.7501L8.5 38.8261L2.26 38.8261L2.26 40.5301L0.496 40.5301L0.496 35.0461L2.26 35.0461ZM8.5 28.5129L7.156 29.0049L7.156 31.9089L8.5 32.4489L8.5 34.6449L0.496 31.5729L0.496 29.3049L8.5 26.2929L8.5 28.5129ZM5.572 31.3329L5.572 29.5569L2.98 30.4569L5.572 31.3329ZM8.5 21.4334L8.5 24.7694L0.495999 24.7694L0.495999 21.6734C0.495999 20.8814 0.703999 20.2974 1.12 19.9214C1.48 19.5934 1.98 19.4294 2.62 19.4294C2.972 19.4294 3.3 19.5054 3.604 19.6574C3.9 19.8174 4.108 20.0334 4.228 20.3054C4.276 19.8574 4.436 19.4934 4.708 19.2134C5.052 18.8534 5.54 18.6734 6.172 18.6734C6.828 18.6734 7.352 18.8694 7.744 19.2614C8.248 19.7494 8.5 20.4734 8.5 21.4334ZM2.092 22.6934L3.652 22.6934L3.652 22.3094C3.652 21.9414 3.568 21.6774 3.4 21.5174C3.272 21.3894 3.096 21.3254 2.872 21.3254C2.656 21.3254 2.476 21.3894 2.332 21.5174C2.172 21.6774 2.092 21.9414 2.092 22.3094L2.092 22.6934ZM5.2 22.6934L6.88 22.6934L6.88 22.2254C6.88 21.5534 6.772 21.1254 6.556 20.9414C6.428 20.8294 6.256 20.7734 6.04 20.7734C5.792 20.7734 5.6 20.8414 5.464 20.9774C5.288 21.1534 5.2 21.5814 5.2 22.2614L5.2 22.6934ZM0.495999 14.6754L3.796 14.6754L0.495999 12.1314L0.495999 9.56341L4.288 12.7434L8.5 9.27541L8.5 11.9634L5.032 14.6754L8.5 14.6754L8.5 16.7514L0.495999 16.7514L0.495999 14.6754ZM8.5 2.30275L7.156 2.79475L7.156 5.69875L8.5 6.23875L8.5 8.43475L0.495998 5.36275L0.495998 3.09475L8.5 0.0827487L8.5 2.30275ZM5.572 5.12275L5.572 3.34675L2.98 4.24675L5.572 5.12275Z" fill="white"/>
</svg>
