<svg width="254" height="60" viewBox="0 0 254 60" fill="none" xmlns="http://www.w3.org/2000/svg">
<path d="M9.68652 7.14453H6.80566L5.83398 9H4.85254L8.71484 1.89062H9.52051L10.9268 9H10.0234L9.68652 7.14453ZM7.21094 6.37305H9.5498L8.95898 3.05762L7.21094 6.37305ZM17.9434 1.89062L17.123 6.7002C17.0124 7.43913 16.6934 8.02832 16.166 8.46777C15.6387 8.90397 15.0023 9.11556 14.2568 9.10254C13.7913 9.09277 13.3861 8.98861 13.041 8.79004C12.6992 8.58822 12.4469 8.30664 12.2842 7.94531C12.1214 7.58073 12.0677 7.16732 12.123 6.70508L12.9434 1.89062H13.8467L13.0312 6.70996C12.9759 7.20801 13.0605 7.60026 13.2852 7.88672C13.5098 8.16992 13.8499 8.31803 14.3057 8.33105C14.8005 8.35059 15.2171 8.21712 15.5557 7.93066C15.8975 7.64095 16.1123 7.23568 16.2002 6.71484L17.0205 1.89062H17.9434ZM24.0322 2.66211H21.8203L20.7217 9H19.8086L20.9072 2.66211H18.6953L18.832 1.89062H24.1689L24.0322 2.66211ZM26.4736 9.09766C26.0212 9.08789 25.6273 8.97884 25.292 8.77051C24.96 8.56217 24.6979 8.25618 24.5059 7.85254C24.3138 7.44564 24.208 6.98991 24.1885 6.48535C24.1689 6.09147 24.2129 5.60482 24.3203 5.02539C24.4277 4.44596 24.6133 3.9235 24.877 3.45801C25.1406 2.99251 25.4613 2.61979 25.8389 2.33984C26.3499 1.96224 26.9326 1.77995 27.5869 1.79297C28.2803 1.80599 28.8271 2.04688 29.2275 2.51562C29.6279 2.98112 29.8428 3.61263 29.8721 4.41016C29.8851 4.75195 29.8493 5.18652 29.7646 5.71387C29.6833 6.24121 29.5352 6.73112 29.3203 7.18359C29.1087 7.63607 28.8385 8.0153 28.5098 8.32129C27.9368 8.85514 27.2581 9.11393 26.4736 9.09766ZM28.9688 4.63477C28.9883 3.99349 28.876 3.49707 28.6318 3.14551C28.3877 2.79069 28.0247 2.60677 27.543 2.59375C27.1068 2.58073 26.7161 2.69792 26.3711 2.94531C26.0293 3.19271 25.7477 3.5638 25.5264 4.05859C25.3083 4.55013 25.1699 5.1735 25.1113 5.92871L25.0967 6.24609C25.0771 6.88411 25.1911 7.38379 25.4385 7.74512C25.6859 8.10645 26.0456 8.29362 26.5176 8.30664C27.1328 8.32292 27.6423 8.10156 28.0459 7.64258C28.4528 7.18034 28.723 6.53255 28.8564 5.69922C28.9215 5.28906 28.959 4.93424 28.9688 4.63477ZM34.0176 9H33.1045L34.3398 1.89062H35.2529L34.0176 9ZM38.1143 1.89062L39.3594 7.68164L42.6211 1.89062H43.8271L42.5918 9H41.6787L42.167 6.1875L42.748 3.32617L39.5254 9H38.8223L37.5527 3.21387L37.1133 6.28027L36.6396 9H35.7217L36.957 1.89062H38.1143ZM45.6387 6.2168L45.1553 9H44.2373L45.4727 1.89062L47.8457 1.89551C48.5781 1.89551 49.1429 2.09082 49.54 2.48145C49.9372 2.86882 50.1081 3.38477 50.0527 4.0293C49.9941 4.70964 49.7223 5.24512 49.2373 5.63574C48.7555 6.02637 48.1191 6.22168 47.3281 6.22168L45.6387 6.2168ZM45.7705 5.4502L47.3525 5.45508C47.8506 5.45508 48.2591 5.32975 48.5781 5.0791C48.8971 4.82845 49.0843 4.48014 49.1396 4.03418C49.1917 3.63379 49.1087 3.3099 48.8906 3.0625C48.6725 2.81185 48.3551 2.68001 47.9385 2.66699L46.2539 2.66211L45.7705 5.4502ZM53.0166 9.09766C52.5641 9.08789 52.1702 8.97884 51.835 8.77051C51.5029 8.56217 51.2409 8.25618 51.0488 7.85254C50.8568 7.44564 50.751 6.98991 50.7314 6.48535C50.7119 6.09147 50.7559 5.60482 50.8633 5.02539C50.9707 4.44596 51.1562 3.9235 51.4199 3.45801C51.6836 2.99251 52.0042 2.61979 52.3818 2.33984C52.8929 1.96224 53.4756 1.77995 54.1299 1.79297C54.8232 1.80599 55.3701 2.04688 55.7705 2.51562C56.1709 2.98112 56.3857 3.61263 56.415 4.41016C56.4281 4.75195 56.3923 5.18652 56.3076 5.71387C56.2262 6.24121 56.0781 6.73112 55.8633 7.18359C55.6517 7.63607 55.3815 8.0153 55.0527 8.32129C54.4798 8.85514 53.8011 9.11393 53.0166 9.09766ZM55.5117 4.63477C55.5312 3.99349 55.4189 3.49707 55.1748 3.14551C54.9307 2.79069 54.5677 2.60677 54.0859 2.59375C53.6497 2.58073 53.2591 2.69792 52.9141 2.94531C52.5723 3.19271 52.2907 3.5638 52.0693 4.05859C51.8512 4.55013 51.7129 5.1735 51.6543 5.92871L51.6396 6.24609C51.6201 6.88411 51.734 7.38379 51.9814 7.74512C52.2288 8.10645 52.5885 8.29362 53.0605 8.30664C53.6758 8.32292 54.1852 8.10156 54.5889 7.64258C54.9958 7.18034 55.266 6.53255 55.3994 5.69922C55.4645 5.28906 55.502 4.93424 55.5117 4.63477ZM60.1846 6.12402H58.5439L58.0459 9H57.123L58.3584 1.89062L60.4971 1.89551C61.2425 1.89876 61.8105 2.08757 62.2012 2.46191C62.5918 2.83626 62.7562 3.3457 62.6943 3.99023C62.6585 4.4362 62.4958 4.82845 62.2061 5.16699C61.9196 5.50553 61.5371 5.76107 61.0586 5.93359L62.1621 8.93652L62.1572 9H61.1807L60.1846 6.12402ZM58.6758 5.35742L60.0234 5.3623C60.4922 5.3623 60.8877 5.23861 61.21 4.99121C61.5322 4.74056 61.721 4.4069 61.7764 3.99023C61.8252 3.58333 61.7438 3.26432 61.5322 3.0332C61.3206 2.80208 60.9984 2.68001 60.5654 2.66699L59.1445 2.66211L58.6758 5.35742ZM68.6318 2.66211H66.4199L65.3213 9H64.4082L65.5068 2.66211H63.2949L63.4316 1.89062H68.7686L68.6318 2.66211ZM76.2783 6.73438C76.1416 7.47005 75.8079 8.05273 75.2773 8.48242C74.75 8.91211 74.1169 9.11719 73.3779 9.09766C72.9385 9.08789 72.5544 8.98047 72.2256 8.77539C71.8968 8.56706 71.6413 8.26921 71.459 7.88184C71.2767 7.49121 71.1758 7.0599 71.1562 6.58789C71.1432 6.32096 71.1546 6.06055 71.1904 5.80664L71.2734 5.2207C71.4264 4.15299 71.8008 3.31152 72.3965 2.69629C72.9954 2.0778 73.723 1.77669 74.5791 1.79297C75.2464 1.80599 75.7754 2.02246 76.166 2.44238C76.5566 2.85905 76.7633 3.43848 76.7861 4.18066H75.873C75.8307 3.18457 75.4401 2.64746 74.7012 2.56934L74.54 2.55957C73.9248 2.54329 73.4105 2.77279 72.9971 3.24805C72.5869 3.72005 72.3216 4.36621 72.2012 5.18652L72.0938 5.92383L72.0645 6.35352C72.0449 6.95247 72.1507 7.42936 72.3818 7.78418C72.6162 8.13574 72.9629 8.31803 73.4219 8.33105C73.9167 8.34733 74.3252 8.22852 74.6475 7.97461C74.973 7.7207 75.2204 7.31217 75.3896 6.74902L76.2783 6.73438ZM79.833 9.09766C79.3805 9.08789 78.9867 8.97884 78.6514 8.77051C78.3193 8.56217 78.0573 8.25618 77.8652 7.85254C77.6732 7.44564 77.5674 6.98991 77.5479 6.48535C77.5283 6.09147 77.5723 5.60482 77.6797 5.02539C77.7871 4.44596 77.9727 3.9235 78.2363 3.45801C78.5 2.99251 78.8206 2.61979 79.1982 2.33984C79.7093 1.96224 80.292 1.77995 80.9463 1.79297C81.6396 1.80599 82.1865 2.04688 82.5869 2.51562C82.9873 2.98112 83.2021 3.61263 83.2314 4.41016C83.2445 4.75195 83.2087 5.18652 83.124 5.71387C83.0426 6.24121 82.8945 6.73112 82.6797 7.18359C82.4681 7.63607 82.1979 8.0153 81.8691 8.32129C81.2962 8.85514 80.6175 9.11393 79.833 9.09766ZM82.3281 4.63477C82.3477 3.99349 82.2354 3.49707 81.9912 3.14551C81.7471 2.79069 81.3841 2.60677 80.9023 2.59375C80.4661 2.58073 80.0755 2.69792 79.7305 2.94531C79.3887 3.19271 79.1071 3.5638 78.8857 4.05859C78.6676 4.55013 78.5293 5.1735 78.4707 5.92871L78.4561 6.24609C78.4365 6.88411 78.5505 7.38379 78.7979 7.74512C79.0452 8.10645 79.4049 8.29362 79.877 8.30664C80.4922 8.32292 81.0016 8.10156 81.4053 7.64258C81.8122 7.18034 82.0824 6.53255 82.2158 5.69922C82.2809 5.28906 82.3184 4.93424 82.3281 4.63477ZM86.3369 1.89062L87.582 7.68164L90.8438 1.89062H92.0498L90.8145 9H89.9014L90.3896 6.1875L90.9707 3.32617L87.748 9H87.0449L85.7754 3.21387L85.3359 6.28027L84.8623 9H83.9443L85.1797 1.89062H86.3369ZM93.8613 6.2168L93.3779 9H92.46L93.6953 1.89062L96.0684 1.89551C96.8008 1.89551 97.3656 2.09082 97.7627 2.48145C98.1598 2.86882 98.3307 3.38477 98.2754 4.0293C98.2168 4.70964 97.945 5.24512 97.46 5.63574C96.9782 6.02637 96.3418 6.22168 95.5508 6.22168L93.8613 6.2168ZM93.9932 5.4502L95.5752 5.45508C96.0732 5.45508 96.4818 5.32975 96.8008 5.0791C97.1198 4.82845 97.307 4.48014 97.3623 4.03418C97.4144 3.63379 97.3314 3.3099 97.1133 3.0625C96.8952 2.81185 96.5778 2.68001 96.1611 2.66699L94.4766 2.66211L93.9932 5.4502ZM102.108 7.14453H99.2275L98.2559 9H97.2744L101.137 1.89062H101.942L103.349 9H102.445L102.108 7.14453ZM99.6328 6.37305H101.972L101.381 3.05762L99.6328 6.37305ZM109.643 9H108.754L106.215 3.48242L105.258 9H104.335L105.57 1.89062H106.459L109.003 7.43262L109.965 1.89062H110.878L109.643 9ZM113.856 5.45508L116.273 1.89062H117.367L114.179 6.39746L113.725 9H112.812L113.28 6.29492L111.693 1.89062H112.689L113.856 5.45508Z" fill="white"/>
<path d="M9.16406 45.6719H23.0625L21.9609 52H0.046875L5.95312 17.875H13.9922L9.16406 45.6719ZM25.5469 52L31.4531 17.875L41.4844 17.8984C44.4375 17.8984 47.0156 18.6797 49.2188 20.2422C51.4219 21.7891 52.9844 23.9062 53.9062 26.5938C54.7031 28.9531 54.9453 31.5 54.6328 34.2344L54.4688 35.6641C54.0469 38.7266 53.0312 41.5 51.4219 43.9844C49.8125 46.4688 47.7422 48.4219 45.2109 49.8438C42.6797 51.25 39.9453 51.9688 37.0078 52H25.5469ZM38.3906 24.2266L34.6641 45.6719L37.0078 45.6953C39.7578 45.6953 41.9609 44.6328 43.6172 42.5078C45.2891 40.3828 46.2812 37.1328 46.5938 32.7578L46.6406 31.9844C46.75 29.4844 46.3594 27.5859 45.4688 26.2891C44.5781 24.9922 43.2422 24.3125 41.4609 24.25L38.3906 24.2266Z" fill="#59B32B"/>
<path d="M69.2109 17.875L76.8281 41.6172L84.4219 17.875H95.25V52H87V44.0312L87.7969 27.7188L79.5469 52H74.1094L65.8359 27.6953L66.6328 44.0312V52H58.4062V17.875H69.2109ZM129.398 35.6406C129.398 38.9688 128.781 41.9141 127.547 44.4766C126.312 47.0391 124.555 49.0156 122.273 50.4062C120.008 51.7812 117.422 52.4688 114.516 52.4688C111.609 52.4688 109.031 51.8047 106.781 50.4766C104.531 49.1328 102.773 47.2188 101.508 44.7344C100.258 42.25 99.6016 39.3984 99.5391 36.1797V34.2578C99.5391 30.9141 100.148 27.9688 101.367 25.4219C102.602 22.8594 104.359 20.8828 106.641 19.4922C108.938 18.1016 111.547 17.4062 114.469 17.4062C117.359 17.4062 119.938 18.0938 122.203 19.4688C124.469 20.8438 126.227 22.8047 127.477 25.3516C128.742 27.8828 129.383 30.7891 129.398 34.0703V35.6406ZM121.031 34.2109C121.031 30.8203 120.461 28.25 119.32 26.5C118.195 24.7344 116.578 23.8516 114.469 23.8516C110.344 23.8516 108.164 26.9453 107.93 33.1328L107.906 35.6406C107.906 38.9844 108.461 41.5547 109.57 43.3516C110.68 45.1484 112.328 46.0469 114.516 46.0469C116.594 46.0469 118.195 45.1641 119.32 43.3984C120.445 41.6328 121.016 39.0938 121.031 35.7812V34.2109ZM158.414 24.2266H148.172V52H139.945V24.2266H129.891V17.875H158.414V24.2266ZM190.148 35.6406C190.148 38.9688 189.531 41.9141 188.297 44.4766C187.062 47.0391 185.305 49.0156 183.023 50.4062C180.758 51.7812 178.172 52.4688 175.266 52.4688C172.359 52.4688 169.781 51.8047 167.531 50.4766C165.281 49.1328 163.523 47.2188 162.258 44.7344C161.008 42.25 160.352 39.3984 160.289 36.1797V34.2578C160.289 30.9141 160.898 27.9688 162.117 25.4219C163.352 22.8594 165.109 20.8828 167.391 19.4922C169.688 18.1016 172.297 17.4062 175.219 17.4062C178.109 17.4062 180.688 18.0938 182.953 19.4688C185.219 20.8438 186.977 22.8047 188.227 25.3516C189.492 27.8828 190.133 30.7891 190.148 34.0703V35.6406ZM181.781 34.2109C181.781 30.8203 181.211 28.25 180.07 26.5C178.945 24.7344 177.328 23.8516 175.219 23.8516C171.094 23.8516 168.914 26.9453 168.68 33.1328L168.656 35.6406C168.656 38.9844 169.211 41.5547 170.32 43.3516C171.43 45.1484 173.078 46.0469 175.266 46.0469C177.344 46.0469 178.945 45.1641 180.07 43.3984C181.195 41.6328 181.766 39.0938 181.781 35.7812V34.2109ZM207.07 39.9531H202.617V52H194.391V17.875H207.82C211.867 17.875 215.031 18.7734 217.312 20.5703C219.594 22.3672 220.734 24.9062 220.734 28.1875C220.734 30.5625 220.25 32.5312 219.281 34.0938C218.328 35.6562 216.828 36.9219 214.781 37.8906L221.906 51.6484V52H213.094L207.07 39.9531ZM202.617 33.6016H207.82C209.383 33.6016 210.555 33.1953 211.336 32.3828C212.133 31.5547 212.531 30.4062 212.531 28.9375C212.531 27.4688 212.133 26.3203 211.336 25.4922C210.539 24.6484 209.367 24.2266 207.82 24.2266H202.617V33.6016ZM243.305 42.9297C243.305 41.7266 242.875 40.7891 242.016 40.1172C241.172 39.4453 239.68 38.75 237.539 38.0312C235.398 37.3125 233.648 36.6172 232.289 35.9453C227.867 33.7734 225.656 30.7891 225.656 26.9922C225.656 25.1016 226.203 23.4375 227.297 22C228.406 20.5469 229.969 19.4219 231.984 18.625C234 17.8125 236.266 17.4062 238.781 17.4062C241.234 17.4062 243.43 17.8438 245.367 18.7188C247.32 19.5938 248.836 20.8438 249.914 22.4688C250.992 24.0781 251.531 25.9219 251.531 28H243.328C243.328 26.6094 242.898 25.5312 242.039 24.7656C241.195 24 240.047 23.6172 238.594 23.6172C237.125 23.6172 235.961 23.9453 235.102 24.6016C234.258 25.2422 233.836 26.0625 233.836 27.0625C233.836 27.9375 234.305 28.7344 235.242 29.4531C236.18 30.1562 237.828 30.8906 240.188 31.6562C242.547 32.4062 244.484 33.2188 246 34.0938C249.688 36.2188 251.531 39.1484 251.531 42.8828C251.531 45.8672 250.406 48.2109 248.156 49.9141C245.906 51.6172 242.82 52.4688 238.898 52.4688C236.133 52.4688 233.625 51.9766 231.375 50.9922C229.141 49.9922 227.453 48.6328 226.312 46.9141C225.188 45.1797 224.625 43.1875 224.625 40.9375H232.875C232.875 42.7656 233.344 44.1172 234.281 44.9922C235.234 45.8516 236.773 46.2812 238.898 46.2812C240.258 46.2812 241.328 45.9922 242.109 45.4141C242.906 44.8203 243.305 43.9922 243.305 42.9297Z" fill="white"/>
</svg>
