<svg width="48" height="10" viewBox="0 0 48 10" fill="none" xmlns="http://www.w3.org/2000/svg">
<path d="M4.76837e-07 0.995999L2.328 0.995999L3.852 4.56L5.184 0.995999L7.404 0.995999L3.804 9H1.608L2.724 6.756L4.76837e-07 0.995999ZM14.3599 6.324V8.784C13.6319 9.048 13.0319 9.18 12.5599 9.18C11.3119 9.18 10.2799 8.78 9.46388 7.98C9.07988 7.596 8.77988 7.148 8.56388 6.636C8.35588 6.116 8.25188 5.592 8.25188 5.064C8.25188 4.512 8.35988 3.976 8.57588 3.456C8.79988 2.936 9.09588 2.488 9.46388 2.112C10.2799 1.28 11.2879 0.864 12.4879 0.864C13.0719 0.864 13.6959 1 14.3599 1.272V3.756C13.8879 3.172 13.2839 2.88 12.5479 2.88C11.9799 2.88 11.4999 3.056 11.1079 3.408C10.6439 3.84 10.4119 4.388 10.4119 5.052C10.4119 5.684 10.6279 6.204 11.0599 6.612C11.4519 6.98 11.9479 7.164 12.5479 7.164C13.2439 7.164 13.8479 6.884 14.3599 6.324ZM17.1755 0.995999L23.3435 0.995999V9H21.2555V2.748L19.2395 2.748V5.664C19.2395 6.944 18.9595 7.864 18.3995 8.424C17.9275 8.88 17.3035 9.108 16.5275 9.108C16.2075 9.108 15.8915 9.072 15.5795 9V7.08C15.7475 7.136 15.9075 7.164 16.0595 7.164C16.3475 7.164 16.5795 7.084 16.7555 6.924C17.0355 6.668 17.1755 6.164 17.1755 5.412V0.995999ZM24.7805 0.995999L27.1085 0.995999L28.6325 4.56L29.9645 0.995999L32.1845 0.995999L28.5845 9L26.3885 9L27.5045 6.756L24.7805 0.995999ZM38.377 0.995999V2.76L35.773 2.76V9H33.697V0.995999L38.377 0.995999ZM40.215 0.995999L42.303 0.995999V6.036L45.303 0.995999L47.427 0.995999V9H45.339V3.96L42.339 9H40.215V0.995999Z" fill="white"/>
</svg>
