<svg width="10" height="61" viewBox="0 0 10 61" fill="none" xmlns="http://www.w3.org/2000/svg">
<path d="M0.996001 58.084L3.984 58.084L3.984 55.084L0.996001 55.084L0.996001 52.996L9 52.996L9 55.084L5.76 55.084L5.76 58.084L9 58.084L9 60.16L0.996001 60.16L0.996001 58.084ZM5.004 42.2403C6.188 42.2403 7.184 42.6603 7.992 43.5003C8.784 44.3323 9.18 45.3843 9.18 46.6563C9.18 47.9283 8.784 48.9803 7.992 49.8123C7.184 50.6523 6.188 51.0723 5.004 51.0723C4.452 51.0723 3.912 50.9683 3.384 50.7603C2.856 50.5443 2.396 50.2283 2.004 49.8123C1.212 48.9803 0.816001 47.9283 0.816001 46.6563C0.816001 45.3843 1.212 44.3323 2.004 43.5003C2.396 43.0843 2.856 42.7723 3.384 42.5643C3.912 42.3483 4.452 42.2403 5.004 42.2403ZM2.832 46.6563C2.832 47.3123 3.044 47.8523 3.468 48.2763C3.884 48.7003 4.408 48.9123 5.04 48.9123C5.624 48.9123 6.12 48.7003 6.528 48.2763C6.952 47.8363 7.164 47.2963 7.164 46.6563C7.164 46.0003 6.956 45.4643 6.54 45.0483C6.108 44.6163 5.596 44.4003 5.004 44.4003C4.396 44.4003 3.884 44.6163 3.468 45.0483C3.044 45.4963 2.832 46.0323 2.832 46.6563ZM9 36.9795L9 40.3155L0.996 40.3155L0.996 37.2195C0.996 36.4275 1.204 35.8435 1.62 35.4675C1.98 35.1395 2.48 34.9755 3.12 34.9755C3.472 34.9755 3.8 35.0515 4.104 35.2035C4.4 35.3635 4.608 35.5795 4.728 35.8515C4.776 35.4035 4.936 35.0395 5.208 34.7595C5.552 34.3995 6.04 34.2195 6.672 34.2195C7.328 34.2195 7.852 34.4155 8.244 34.8075C8.748 35.2955 9 36.0195 9 36.9795ZM2.592 38.2395L4.152 38.2395L4.152 37.8555C4.152 37.4875 4.068 37.2235 3.9 37.0635C3.772 36.9355 3.596 36.8715 3.372 36.8715C3.156 36.8715 2.976 36.9355 2.832 37.0635C2.672 37.2235 2.592 37.4875 2.592 37.8555L2.592 38.2395ZM5.7 38.2395L7.38 38.2395L7.38 37.7715C7.38 37.0995 7.272 36.6715 7.056 36.4875C6.928 36.3755 6.756 36.3195 6.54 36.3195C6.292 36.3195 6.1 36.3875 5.964 36.5235C5.788 36.6995 5.7 37.1275 5.7 37.8075L5.7 38.2395ZM5.004 23.8255C6.188 23.8255 7.184 24.2455 7.992 25.0855C8.784 25.9175 9.18 26.9695 9.18 28.2415C9.18 29.5135 8.784 30.5655 7.992 31.3975C7.184 32.2375 6.188 32.6575 5.004 32.6575C4.452 32.6575 3.912 32.5535 3.384 32.3455C2.856 32.1295 2.396 31.8135 2.004 31.3975C1.212 30.5655 0.816 29.5135 0.816 28.2415C0.816 26.9695 1.212 25.9175 2.004 25.0855C2.396 24.6695 2.856 24.3575 3.384 24.1495C3.912 23.9335 4.452 23.8255 5.004 23.8255ZM2.832 28.2415C2.832 28.8975 3.044 29.4375 3.468 29.8615C3.884 30.2855 4.408 30.4975 5.04 30.4975C5.624 30.4975 6.12 30.2855 6.528 29.8615C6.952 29.4215 7.164 28.8815 7.164 28.2415C7.164 27.5855 6.956 27.0495 6.54 26.6335C6.108 26.2015 5.596 25.9855 5.004 25.9855C4.396 25.9855 3.884 26.2015 3.468 26.6335C3.044 27.0815 2.832 27.6175 2.832 28.2415ZM6.324 16.1526L8.784 16.1526C9.048 16.8806 9.18 17.4806 9.18 17.9526C9.18 19.2006 8.78 20.2326 7.98 21.0486C7.596 21.4326 7.148 21.7326 6.636 21.9486C6.116 22.1566 5.592 22.2606 5.064 22.2606C4.512 22.2606 3.976 22.1526 3.456 21.9366C2.936 21.7126 2.488 21.4166 2.112 21.0486C1.28 20.2326 0.864 19.2246 0.864 18.0246C0.864 17.4406 0.999999 16.8166 1.272 16.1526L3.756 16.1526C3.172 16.6246 2.88 17.2286 2.88 17.9646C2.88 18.5326 3.056 19.0126 3.408 19.4046C3.84 19.8686 4.388 20.1006 5.052 20.1006C5.684 20.1006 6.204 19.8846 6.612 19.4526C6.98 19.0606 7.164 18.5646 7.164 17.9646C7.164 17.2686 6.884 16.6646 6.324 16.1526ZM2.76 9.20153L2.76 10.9055L9 10.9055L9 12.9815L2.76 12.9815L2.76 14.6855L0.995999 14.6855L0.995999 9.20153L2.76 9.20153ZM0.995999 7.6811L0.995999 5.59309L6.036 5.59309L0.995999 2.59309L0.995999 0.469095L9 0.469095L9 2.55709L3.96 2.55709L9 5.55709L9 7.68109L0.995999 7.6811Z" fill="white"/>
</svg>
