<svg width="61" height="10" viewBox="0 0 61 10" fill="none" xmlns="http://www.w3.org/2000/svg">
<path d="M2.916 0.995999L2.916 3.984H5.916L5.916 0.995999L8.004 0.995999L8.004 9H5.916L5.916 5.76H2.916L2.916 9H0.84L0.84 0.995999L2.916 0.995999ZM18.7597 5.004C18.7597 6.188 18.3397 7.184 17.4997 7.992C16.6677 8.784 15.6157 9.18 14.3437 9.18C13.0717 9.18 12.0197 8.784 11.1877 7.992C10.3477 7.184 9.92766 6.188 9.92766 5.004C9.92766 4.452 10.0317 3.912 10.2397 3.384C10.4557 2.856 10.7717 2.396 11.1877 2.004C12.0197 1.212 13.0717 0.816 14.3437 0.816C15.6157 0.816 16.6677 1.212 17.4997 2.004C17.9157 2.396 18.2277 2.856 18.4357 3.384C18.6517 3.912 18.7597 4.452 18.7597 5.004ZM14.3437 2.832C13.6877 2.832 13.1477 3.044 12.7237 3.468C12.2997 3.884 12.0877 4.408 12.0877 5.04C12.0877 5.624 12.2997 6.12 12.7237 6.528C13.1637 6.952 13.7037 7.164 14.3437 7.164C14.9997 7.164 15.5357 6.956 15.9517 6.54C16.3837 6.108 16.5997 5.596 16.5997 5.004C16.5997 4.396 16.3837 3.884 15.9517 3.468C15.5037 3.044 14.9677 2.832 14.3437 2.832ZM24.0205 9H20.6845V0.995999L23.7805 0.995999C24.5725 0.995999 25.1565 1.204 25.5325 1.62C25.8605 1.98 26.0245 2.48 26.0245 3.12C26.0245 3.472 25.9485 3.8 25.7965 4.104C25.6365 4.4 25.4205 4.608 25.1485 4.728C25.5965 4.776 25.9605 4.936 26.2405 5.208C26.6005 5.552 26.7805 6.04 26.7805 6.672C26.7805 7.328 26.5845 7.852 26.1925 8.244C25.7045 8.748 24.9805 9 24.0205 9ZM22.7605 2.592V4.152H23.1445C23.5125 4.152 23.7765 4.068 23.9365 3.9C24.0645 3.772 24.1285 3.596 24.1285 3.372C24.1285 3.156 24.0645 2.976 23.9365 2.832C23.7765 2.672 23.5125 2.592 23.1445 2.592H22.7605ZM22.7605 5.7V7.38H23.2285C23.9005 7.38 24.3285 7.272 24.5125 7.056C24.6245 6.928 24.6805 6.756 24.6805 6.54C24.6805 6.292 24.6125 6.1 24.4765 5.964C24.3005 5.788 23.8725 5.7 23.1925 5.7H22.7605ZM37.1745 5.004C37.1745 6.188 36.7545 7.184 35.9145 7.992C35.0825 8.784 34.0305 9.18 32.7585 9.18C31.4865 9.18 30.4345 8.784 29.6025 7.992C28.7625 7.184 28.3425 6.188 28.3425 5.004C28.3425 4.452 28.4465 3.912 28.6545 3.384C28.8705 2.856 29.1865 2.396 29.6025 2.004C30.4345 1.212 31.4865 0.816 32.7585 0.816C34.0305 0.816 35.0825 1.212 35.9145 2.004C36.3305 2.396 36.6425 2.856 36.8505 3.384C37.0665 3.912 37.1745 4.452 37.1745 5.004ZM32.7585 2.832C32.1025 2.832 31.5625 3.044 31.1385 3.468C30.7145 3.884 30.5025 4.408 30.5025 5.04C30.5025 5.624 30.7145 6.12 31.1385 6.528C31.5785 6.952 32.1185 7.164 32.7585 7.164C33.4145 7.164 33.9505 6.956 34.3665 6.54C34.7985 6.108 35.0145 5.596 35.0145 5.004C35.0145 4.396 34.7985 3.884 34.3665 3.468C33.9185 3.044 33.3825 2.832 32.7585 2.832ZM44.8474 6.324V8.784C44.1194 9.048 43.5194 9.18 43.0474 9.18C41.7994 9.18 40.7674 8.78 39.9514 7.98C39.5674 7.596 39.2674 7.148 39.0514 6.636C38.8434 6.116 38.7394 5.592 38.7394 5.064C38.7394 4.512 38.8474 3.976 39.0634 3.456C39.2874 2.936 39.5834 2.488 39.9514 2.112C40.7674 1.28 41.7754 0.864 42.9754 0.864C43.5594 0.864 44.1834 1 44.8474 1.272V3.756C44.3754 3.172 43.7714 2.88 43.0354 2.88C42.4674 2.88 41.9874 3.056 41.5954 3.408C41.1314 3.84 40.8994 4.388 40.8994 5.052C40.8994 5.684 41.1154 6.204 41.5474 6.612C41.9394 6.98 42.4354 7.164 43.0354 7.164C43.7314 7.164 44.3354 6.884 44.8474 6.324ZM51.7985 2.76L50.0945 2.76V9L48.0185 9V2.76H46.3145V0.995999L51.7985 0.995999V2.76ZM53.3189 0.995999L55.4069 0.995999V6.036L58.4069 0.995999L60.5309 0.995999V9H58.4429V3.96L55.4429 9H53.3189V0.995999Z" fill="white"/>
</svg>
