<svg width="662" height="1092" viewBox="0 0 662 1092" fill="none" xmlns="http://www.w3.org/2000/svg">
<path d="M324.2 6.89999C308.6 22.7 293.7 52.2 288.6 77C285.3 93.1 284.7 103 285.3 130.5C286.2 170 290.4 292.8 294.1 389.5C297 465.7 289.5 527.5 271.3 578C264.4 597 258.7 608.4 252.7 615.4C236.9 633.5 220.4 658.5 209.2 681.2C189.6 721.1 179.3 763 177.4 810.6L176.7 827L206.1 826.8L235.5 826.5L236.1 811.5C236.9 794.5 241.5 762.7 245.9 744.5C254.1 710.7 268.4 680.2 288.6 653C297 641.8 318.4 619.7 326.3 614.2L331.1 610.8L342.7 622.2C380.4 659.2 406.7 705.3 417.4 753.1C420.9 769 425 799.1 425.7 814.3L426.3 827L455.4 826.8L484.5 826.5L484.2 813.5C483.5 774.8 475.4 736.5 460.6 700.5C449 672.6 428.6 639.5 409.1 617.1C406.1 613.6 402.8 608.6 401.8 606.1C400.9 603.6 398.3 597.1 396.1 591.7C383.3 560.6 373.8 521.5 369.6 482C365.7 445.9 365.2 416.2 367.5 360.5C368.3 340.7 369.9 296.8 371 263C372.1 229.2 373.7 181.3 374.6 156.6C376.3 107.9 375.8 95.6 371.9 77.1C366.2 50.9 352.9 24.5 336.9 7.59999L330.3 0.699988L324.2 6.89999Z"/>
<path d="M0 505V899H91.3H182.7L185.5 909.7C194.3 943.8 211.2 978.3 233.2 1007.3C256.2 1037.6 289.4 1067.3 321.2 1086.3L330.8 1092L341 1086.2C374.5 1066.9 406.5 1038.3 430.8 1005.7C442.2 990.6 449 979.2 457.6 961.5C466.5 943.1 470.9 931.3 475.7 913L479.3 899H570.7H662V505V111H660C653.6 111 623.8 131.4 601.2 151.4C567.6 181 536.5 222.9 516.5 265.4C497.6 305.5 485.3 351.7 480.6 400.5C475.9 447.9 474.6 460.2 471 489.5C467.1 521.5 463.6 552 460.2 585.1L458.4 602.8L469.5 603.2C482 603.7 488.1 605.5 498.2 611.6C518.1 623.7 529 644.3 526 663.7C523.3 680.8 511.6 694.6 489.2 707C486.9 708.3 485.2 709.9 485.4 710.4C488.2 716.9 495.6 744.2 498.1 756.7C498.7 760.2 499.6 763 500 763C501.6 763 518.8 755.7 524 752.8C547.7 739.4 564.4 721 573.7 698C579.8 683.1 581.4 674.2 581.5 656C581.5 636.1 579.8 628.4 571.6 611.5C562.3 592.4 549.7 578.2 531.7 566.3C524.3 561.4 521.4 558.9 520.4 556.4C519.1 553.4 519.5 549.1 524 512.8C529.1 471.4 532.7 438.6 535.5 410.5C536.3 401.7 538 388.9 539.1 382C545.4 342.5 561.8 296.6 581.3 264C588.3 252.3 604.8 227 605.5 227C605.8 227 606 366.9 606 538V849H493.5H381V874V899H399.3C409.4 899 417.9 899.3 418.2 899.6C419.1 900.5 413.4 920.9 409 932.7C400.5 955.2 387.1 978.1 371.2 997C366.8 1002.2 362.3 1007.4 361.1 1008.4L359 1010.3L359.2 923.4L359.5 836.5L362.9 829.6C369.2 816.7 383.4 805.7 400.3 800.4C404.9 799 406 798.2 406 796.5C406 788.7 399.6 750.4 398 748.6C397 747.6 385.5 751.3 377.9 755.1C370.3 758.9 353.8 770.1 341.2 779.9L330.9 788L319.2 778.8C306 768.5 292.1 759.1 284 755C276.4 751.2 265 747.6 264 748.6C262.4 750.3 255.2 792.9 255.8 797.7C255.8 798 259.3 799.6 263.5 801.1C281 807.5 293 817.1 299.1 829.6L302.5 836.5L302.7 923L303 1009.5L296.4 1002.7C284.4 990.2 270.6 970.1 261.6 952.2C254 937 241.9 901.4 243.8 899.6C244.1 899.3 252.6 899 262.7 899H281V874V849H168.5H56V538C56 366.9 56.2 227 56.4 227C57 227 73.5 252.6 81 265C95.1 288.3 109.2 323.4 117 354.5C121.5 372.4 124.6 393 128 427C129.7 443.8 133.3 475.9 136.1 498.5C138.9 521 141.4 543.3 141.6 548C142.2 558.3 142.2 558.3 129 567.1C95.4 589.4 75.7 628.8 80 665.2C85.3 711.1 110.4 743.3 153.8 760C158 761.7 161.7 763 162 763C162.3 763 163.2 759.5 163.9 755.2C165.4 746.2 171 724.1 174 715.6C175.1 712.3 176 709.6 176 709.4C176 709.3 172.3 706.9 167.8 704.1C144.3 689.9 135.3 676.6 135.6 656.5C135.8 641.6 140.9 630.9 152.5 620.2C165.5 608.4 176 603.9 192.3 603.2C202 602.8 203 602.6 203 600.9C203 597 195.8 531.6 191.5 496C186 450.4 184.4 436.2 182.5 413.5C178.7 370.6 172.8 340.2 161.5 306.5C137 232.9 92 171.5 30.2 127.3C18 118.6 5.1 111 2.3 111H0V505Z"/>
</svg>
