<svg version="1.1" xmlns="http://www.w3.org/2000/svg" xmlns:xlink="http://www.w3.org/1999/xlink" x="0px" y="0px"
	 viewBox="0 0 512 512" style="enable-background:new 0 0 512 512;" xml:space="preserve">
<g>
	<g>
		<path d="M184.866,0C83.07,0,0.258,82.811,0.258,184.607c0,101.789,82.812,184.607,184.607,184.607
			c101.789,0,184.607-82.818,184.607-184.607C369.473,82.811,286.655,0,184.866,0z M184.866,328.937
			c-79.583,0-144.329-64.747-144.329-144.329S105.283,40.278,184.866,40.278s144.329,64.747,144.329,144.329
			S264.448,328.937,184.866,328.937z"/>
	</g>
</g>
<g>
	<g>
		<path d="M505.841,428.725L399.044,321.922c-3.773-3.779-8.895-5.901-14.238-5.901c-5.344,0-10.459,2.121-14.238,5.901
			l-48.891,48.891c-7.868,7.861-7.868,20.609,0,28.477l106.804,106.81c3.773,3.779,8.895,5.901,14.238,5.901
			s10.459-2.128,14.232-5.907l48.891-48.891C513.708,449.341,513.708,436.593,505.841,428.725z M442.719,463.371l-78.321-78.32
			l20.414-20.407l78.32,78.32L442.719,463.371z"/>
	</g>
</g>
<g>
	<g>
		
			<rect x="310.404" y="288.52" transform="matrix(0.7071 -0.7071 0.7071 0.7071 -136.7381 330.4664)" width="40.271" height="83.542"/>
	</g>
</g>
<g>
</g>
<g>
</g>
<g>
</g>
<g>
</g>
<g>
</g>
<g>
</g>
<g>
</g>
<g>
</g>
<g>
</g>
<g>
</g>
<g>
</g>
<g>
</g>
<g>
</g>
<g>
</g>
<g>
</g>
</svg>
